<?xml version="1.0" encoding="UTF-8"?>
<svg id="Layer_2" data-name="Layer 2" xmlns="http://www.w3.org/2000/svg" viewBox="0 0 87.69 99.9">
  <defs>
    <style>
      .cls-1 {
        fill: #262262;
        fill-rule: evenodd;
      }
    </style>
  </defs>
  <g id="Layer_1-2" data-name="Layer 1">
    <path class="cls-1" d="M62.38,0c6.62,0,11.98,5.37,11.98,11.98,0,4.99-3.1,9.46-7.77,11.22l-4.7,1.77h16.35c5.21,0,9.43,4.22,9.43,9.43v9.99c0,3.82-2.28,7.12-5.55,8.6v37.47c0,5.21-4.22,9.43-9.43,9.43H14.98c-5.21,0-9.43-4.22-9.43-9.43v-37.47c-3.27-1.48-5.55-4.77-5.55-8.6v-9.99c0-5.21,4.22-9.43,9.43-9.43h16.35l-4.7-1.77c-4.67-1.76-7.77-6.23-7.77-11.22C13.32,5.37,18.69,0,25.3,0,29.91,0,34.21,2.45,36.35,6.56l7.49,14.36,7.49-14.36C53.48,2.45,57.78,0,62.38,0h0ZM47.73,92.13h24.97c.92,0,1.66-.75,1.66-1.66v-36.63h-26.64v38.29ZM13.32,90.46c0,.92.75,1.66,1.66,1.66h24.97v-38.29H13.32v36.63ZM47.73,46.06h30.52c.92,0,1.66-.75,1.66-1.66v-9.99c0-.92-.75-1.66-1.66-1.66h-30.52v13.32ZM9.44,32.74c-.92,0-1.66.75-1.66,1.66v9.99c0,.92.75,1.66,1.66,1.66h30.52v-13.32H9.44ZM25.3,7.77c-2.33,0-4.21,1.89-4.21,4.21,0,1.76,1.09,3.33,2.73,3.95l10.77,4.05-5.12-9.82c-.82-1.58-2.43-2.39-4.16-2.39h0ZM62.38,7.77c-1.73,0-3.34.81-4.16,2.39l-5.12,9.82,10.77-4.05c1.64-.62,2.73-2.19,2.73-3.95,0-2.33-1.89-4.21-4.21-4.21h0Z"/>
  </g>
</svg>