<?xml version="1.0" encoding="UTF-8"?>
<svg id="Layer_2" data-name="Layer 2" xmlns="http://www.w3.org/2000/svg" viewBox="0 0 46.35 33.11">
  <defs>
    <style>
      .cls-1 {
        fill: #262262;
      }
    </style>
  </defs>
  <g id="Layer_1-2" data-name="Layer 1">
    <path class="cls-1" d="M41.39,0H4.97C2.23,0,0,2.23,0,4.97v23.18c0,2.74,2.23,4.97,4.97,4.97h36.42c2.74,0,4.97-2.23,4.97-4.97V4.97c0-2.74-2.23-4.97-4.97-4.97ZM24.17,15.4c-.59.44-1.4.44-1.99,0L6.07,3.31h34.21l-16.11,12.08h0ZM15.93,14.84L3.31,27.46V5.38l12.61,9.46ZM18.6,16.85l1.6,1.2c.88.66,1.93.99,2.98.99s2.1-.33,2.98-.99l1.59-1.2,12.95,12.95H5.65s12.95-12.95,12.95-12.95ZM30.43,14.84l12.61-9.46v22.08l-12.61-12.61Z"/>
  </g>
</svg>