<?xml version="1.0" encoding="UTF-8"?>
<svg id="Layer_2" data-name="Layer 2" xmlns="http://www.w3.org/2000/svg" viewBox="0 0 811.23 1606.22">
  <defs>
    <style>
      .cls-1 {
        font-family: RalewayRoman-Regular, Raleway;
        font-size: 40px;
        font-variation-settings: 'wght' 400;
      }

      .cls-1, .cls-2, .cls-3, .cls-4, .cls-5 {
        fill: #262262;
      }

      .cls-2 {
        font-size: 45px;
      }

      .cls-2, .cls-3 {
        font-family: RalewayRoman-SemiBold, Raleway;
        font-variation-settings: 'wght' 600;
        font-weight: 600;
      }

      .cls-3 {
        font-size: 51px;
      }

      .cls-6 {
        fill: none;
        stroke: #262262;
        stroke-linecap: round;
        stroke-miterlimit: 10;
        stroke-width: 8px;
      }

      .cls-5 {
        fill-rule: evenodd;
      }

      .cls-7 {
        letter-spacing: -.09em;
      }

      .cls-8 {
        letter-spacing: -.1em;
      }

      .cls-9 {
        letter-spacing: -.03em;
      }

      .cls-10 {
        letter-spacing: -.03em;
      }

      .cls-11 {
        letter-spacing: -.02em;
      }

      .cls-12 {
        letter-spacing: -.01em;
      }

      .cls-13 {
        letter-spacing: -.01em;
      }

      .cls-14 {
        letter-spacing: -.02em;
      }

      .cls-15 {
        letter-spacing: -.05em;
      }

      .cls-16 {
        letter-spacing: -.03em;
      }

      .cls-17 {
        letter-spacing: -.03em;
      }

      .cls-18 {
        letter-spacing: 0em;
      }

      .cls-19 {
        letter-spacing: 0em;
      }

      .cls-20 {
        letter-spacing: 0em;
      }

      .cls-21 {
        letter-spacing: 0em;
      }

      .cls-22 {
        letter-spacing: -.01em;
      }

      .cls-23 {
        letter-spacing: 0em;
      }

      .cls-24 {
        letter-spacing: 0em;
      }

      .cls-25 {
        letter-spacing: 0em;
      }

      .cls-26 {
        letter-spacing: 0em;
      }

      .cls-27 {
        letter-spacing: 0em;
      }

      .cls-28 {
        letter-spacing: 0em;
      }
    </style>
  </defs>
  <g id="Layer_1-2" data-name="Layer 1">
    <line class="cls-6" x1="18.97" y1="69.2" x2="18.95" y2="1540.59"/>
    <circle class="cls-4" cx="18.95" cy="69.78" r="18.95"/>
    <circle class="cls-4" cx="18.95" cy="302.79" r="18.95"/>
    <g>
      <g>
        <path class="cls-4" d="M128.45,84h-34.16c-1.26,0-2.28-1.03-2.28-2.28v-44.18c0-.58.22-1.14.62-1.57l17.08-18.13c.87-.91,2.47-.91,3.32,0l17.08,18.13c.4.42.62.98.62,1.57v44.18c0,1.26-1.03,2.28-2.28,2.28h.01ZM96.57,79.43h29.59v-40.99l-14.8-15.7-14.8,15.7v40.99Z"/>
        <path class="cls-4" d="M143.5,84h-15.06c-1.26,0-2.28-1.03-2.28-2.28v-33.05c0-.75.37-1.47,1-1.9.63-.42,1.43-.51,2.14-.23l15.06,6.06c.87.34,1.43,1.19,1.43,2.11v26.99c0,1.26-1.03,2.28-2.28,2.28h0ZM130.73,79.43h10.49v-23.16l-10.49-4.22v27.38Z"/>
        <path class="cls-4" d="M94.29,84h-15.06c-1.26,0-2.28-1.03-2.28-2.28v-26.99c0-.94.57-1.77,1.43-2.11l15.06-6.06c.71-.29,1.51-.2,2.14.23.63.42,1,1.13,1,1.9v33.05c0,1.26-1.03,2.28-2.28,2.28h0ZM81.52,79.43h10.49v-27.38l-10.49,4.22v23.16Z"/>
        <path class="cls-4" d="M111.37,21.7c-1.26,0-2.28-1.03-2.28-2.28V2.28c0-1.26,1.03-2.28,2.28-2.28s2.28,1.03,2.28,2.28v17.14c0,1.26-1.03,2.28-2.28,2.28Z"/>
        <path class="cls-4" d="M117.03,10.05h-11.33c-1.26,0-2.28-1.03-2.28-2.28s1.03-2.28,2.28-2.28h11.33c1.26,0,2.28,1.03,2.28,2.28s-1.03,2.28-2.28,2.28Z"/>
        <path class="cls-4" d="M118.44,84h-14.13c-1.26,0-2.28-1.03-2.28-2.28v-14.9c0-5.16,4.19-9.35,9.35-9.35s9.35,4.19,9.35,9.35v14.9c0,1.26-1.03,2.28-2.28,2.28h0ZM106.58,79.43h9.57v-12.62c0-2.64-2.14-4.78-4.78-4.78s-4.78,2.14-4.78,4.78v12.62h0Z"/>
        <path class="cls-4" d="M149.16,84h-75.6c-1.26,0-2.28-1.03-2.28-2.28s1.03-2.28,2.28-2.28h75.59c1.26,0,2.28,1.03,2.28,2.28s-1.03,2.28-2.28,2.28h0Z"/>
      </g>
      <text class="cls-3" transform="translate(201.65 85.78)"><tspan class="cls-18" x="0" y="0">N</tspan><tspan x="38.81" y="0">ászmise és</tspan><tspan class="cls-17" x="300.75" y="0"> </tspan><tspan class="cls-12" x="311.76" y="0">A</tspan><tspan x="345.42" y="0">gapé</tspan></text>
      <text class="cls-2" transform="translate(55.43 125.76)"><tspan x="0" y="0">14:00</tspan></text>
    </g>
    <g>
      <text class="cls-3" transform="translate(203.77 300.74)"><tspan class="cls-15" x="0" y="0">V</tspan><tspan x="31.77" y="0">acso</tspan><tspan class="cls-27" x="144.79" y="0">r</tspan><tspan x="163.81" y="0">a </tspan><tspan class="cls-11" x="205.17" y="0">(</tspan><tspan x="219.2" y="0">családi </tspan><tspan class="cls-10" x="403.05" y="0">k</tspan><tspan x="429.62" y="0">örben)</tspan></text>
      <text class="cls-2" transform="translate(54.6 369.72)"><tspan x="0" y="0">18:00</tspan></text>
      <g>
        <path class="cls-4" d="M84.24,268.56c.76,0,1.38-.62,1.38-1.38v-14.52c0-.76-.62-1.38-1.38-1.38s-1.38.62-1.38,1.38v14.52c0,.36.14.72.4.97.26.26.61.4.97.4h0Z"/>
        <path class="cls-4" d="M89.37,268.56c.36,0,.71-.14.97-.4.26-.26.41-.61.41-.97v-14.52c0-.76-.62-1.38-1.38-1.38s-1.38.62-1.38,1.38v14.52c0,.36.14.72.4.97.26.26.61.4.97.4h0Z"/>
        <path class="cls-4" d="M149.88,287.36c0-9.2-3.29-18.1-9.28-25.07l-.14-10.01c-.02-.53-.34-1.01-.83-1.23-.49-.22-1.06-.13-1.46.22-1.63,1.45-3.09,3.07-4.36,4.84-10.9-7.86-25.12-9.45-37.49-4.19-.25-.38-.67-.61-1.12-.62-.76,0-1.38.62-1.38,1.38v14.04l-5.44,6.88c-.53.56-.18,1.88-.21,2.56l1.79,32.92c.03,2.23-.86,4.52-3.3,4.74-2.45-.21-3.33-2.52-3.3-4.74l1.88-34.55c.02-.33-.08-.64-.28-.9-.02-.06-4.49-5.94-4.52-6l-.67-.89v-14.06c-.01-.75-.63-1.35-1.38-1.35s-1.37.6-1.38,1.35v14.52c-.05.52.43,1.02.72,1.41h0c-3.66,6.54-5.33,14-4.81,21.48.52,7.47,3.22,14.63,7.76,20.59.21,1.53.88,2.95,1.93,4.09.93,1,2.2,1.63,3.57,1.76,6.92,5.98,15.73,9.3,24.87,9.36,9.14.07,18-3.12,25.01-8.99.17.03.34.04.52.06,3.34,0,6.06-3.21,6.07-7.15,4.71-6.53,7.24-14.37,7.21-22.43h0ZM79.56,271l2.91,3.87-1.69,31.01c-6.43-10.63-6.89-23.83-1.22-34.88h0ZM147.13,287.36c.01,6.22-1.62,12.32-4.71,17.71l-1.64-30.28-.11-7.92c4.2,6,6.46,13.15,6.47,20.48h0ZM132.28,258.38c-1.76,2.95-3.04,6.16-3.81,9.51-4.35-3.83-9.85-6.09-15.63-6.42-5.78-.33-11.51,1.28-16.26,4.58v-11.25c5.74-2.61,12.06-3.65,18.33-3.02,6.27.63,12.26,2.91,17.37,6.6h0ZM131.09,299.52c-8.58,14.15-29.59,14.72-38.83.95l-1.31-24.08c7.08-13.62,26.39-16.35,36.93-5.23-.18,1.15-.4,3.81-.47,5.01h0c-.43,5.58,1.01,11.15,4.09,15.83l-.41,7.52ZM111.36,323.12c-7.89,0-15.56-2.62-21.8-7.45.42-.26.8-.57,1.15-.93,1.44-1.59,2.16-3.69,2.01-5.83l-.21-3.78c10.01,11.05,28.65,10.67,38.3-.67-.17,3.42-.98,8.07,1.75,10.65.19.19.39.37.61.53-6.24,4.84-13.91,7.46-21.81,7.47h0ZM136.6,314.19c-2.44-.22-3.33-2.52-3.3-4.74l.97-17.73c.1-.6-.76-1.63-1.01-2.13-3.05-4.75-3.59-10.82-2.85-16.42h0c.48-6.51,3.06-12.7,7.35-17.61l.27,19.34,1.87,34.49c.21,2.4-1.39,4.85-3.3,4.81h0Z"/>
        <path class="cls-4" d="M117.51,274.77c-2.54,0-4.92,1.28-6.3,3.42-1.38-2.14-3.76-3.43-6.3-3.42-8.12.19-9.7,10.05-4.44,15.01l9.77,9.77h0c.26.25.61.4.97.4s.72-.14.97-.4l9.77-9.77c5.25-4.96,3.68-14.82-4.44-15.01h0ZM120,287.83l-8.8,8.8-8.8-8.8c-3.47-3.18-3.13-10.15,2.5-10.31,1.81,0,3.47,1.02,4.28,2.64l.79,1.58h0c.16.25.37.46.62.62.68.3,1.48.04,1.84-.62l.79-1.58c.8-1.63,2.47-2.65,4.28-2.64,5.62.16,5.96,7.13,2.49,10.31h0Z"/>
      </g>
      <text class="cls-1" transform="translate(207.77 355.5)"><tspan x="0" y="0">ér</tspan><tspan class="cls-9" x="37.52" y="0">k</tspan><tspan class="cls-26" x="57.64" y="0">e</tspan><tspan class="cls-22" x="80.84" y="0">z</tspan><tspan x="100.08" y="0">és 16:45 és </tspan><tspan class="cls-19" x="308.67" y="0">1</tspan><tspan x="325.6" y="0">7:15 </tspan><tspan class="cls-9" x="403.63" y="0">k</tspan><tspan class="cls-22" x="423.75" y="0">öz</tspan><tspan class="cls-25" x="466.35" y="0">ö</tspan><tspan x="489.83" y="0">tt</tspan></text>
    </g>
    <circle class="cls-4" cx="18.97" cy="557.03" r="18.95"/>
    <g>
      <text class="cls-3" transform="translate(202.63 495.13)"><tspan x="0" y="0">G</tspan><tspan class="cls-27" x="36.67" y="0">r</tspan><tspan class="cls-20" x="55.69" y="0">a</tspan><tspan x="84.25" y="0">tuláció</tspan></text>
      <text class="cls-2" transform="translate(55.19 604.11)"><tspan x="0" y="0">19:30</tspan></text>
      <text class="cls-1" transform="translate(206.63 549.88)"><tspan x="0" y="0">ek</tspan><tspan class="cls-9" x="44.68" y="0">k</tspan><tspan x="64.8" y="0">or</tspan><tspan class="cls-24" x="102.64" y="0">t</tspan><tspan x="115.68" y="0">ó</tspan><tspan class="cls-16" x="139.48" y="0">l</tspan><tspan class="cls-9" x="149.16" y="0"> </tspan><tspan class="cls-13" x="158.28" y="0">v</tspan><tspan x="179.08" y="0">árjuk a</tspan><tspan class="cls-22" x="300.88" y="0">z</tspan><tspan x="320.12" y="0">ok ér</tspan><tspan class="cls-9" x="412.84" y="0">k</tspan><tspan class="cls-26" x="432.96" y="0">e</tspan><tspan class="cls-22" x="456.16" y="0">z</tspan><tspan x="475.4" y="0">és</tspan><tspan class="cls-19" x="518.2" y="0">é</tspan><tspan x="541.48" y="0">t, </tspan><tspan x="0" y="48">akik a la</tspan><tspan class="cls-9" x="147.8" y="48">k</tspan><tspan x="167.92" y="48">odalom tán</tspan><tspan class="cls-19" x="378.55" y="48">c</tspan><tspan x="400.32" y="48">os </tspan><tspan class="cls-14" x="0" y="96">r</tspan><tspan x="13.4" y="96">és</tspan><tspan class="cls-22" x="56.2" y="96">z</tspan><tspan x="75.44" y="96">é</tspan><tspan class="cls-14" x="98.92" y="96">r</tspan><tspan x="112.32" y="96">e hi</tspan><tspan class="cls-13" x="178.04" y="96">v</tspan><tspan class="cls-21" x="198.84" y="96">a</tspan><tspan x="220.48" y="96">talosak</tspan></text>
      <path class="cls-5" d="M126.37,478.88c4.99,0,9.03,4.05,9.03,9.03,0,3.76-2.33,7.13-5.86,8.46l-3.54,1.33h12.33c3.93,0,7.11,3.18,7.11,7.11v7.53c0,2.88-1.72,5.36-4.18,6.48v28.24c0,3.93-3.18,7.11-7.11,7.11h-43.5c-3.93,0-7.11-3.18-7.11-7.11v-28.24c-2.47-1.12-4.18-3.6-4.18-6.48v-7.53c0-3.93,3.18-7.11,7.11-7.11h12.33l-3.54-1.33c-3.52-1.32-5.86-4.69-5.86-8.46,0-4.99,4.05-9.03,9.03-9.03,3.47,0,6.71,1.84,8.33,4.95l5.64,10.82,5.64-10.82c1.62-3.1,4.86-4.95,8.33-4.95h0ZM115.32,548.31h18.82c.69,0,1.25-.56,1.25-1.25v-27.61h-20.08v28.86ZM89.39,547.06c0,.69.56,1.25,1.25,1.25h18.82v-28.86h-20.08v27.61ZM115.32,513.6h23c.69,0,1.25-.56,1.25-1.25v-7.53c0-.69-.56-1.25-1.25-1.25h-23.01v10.04ZM86.46,503.56c-.69,0-1.25.56-1.25,1.25v7.53c0,.69.56,1.25,1.25,1.25h23.01v-10.04h-23.01ZM98.42,484.74c-1.75,0-3.18,1.42-3.18,3.18,0,1.33.82,2.51,2.06,2.98l8.12,3.05-3.86-7.4c-.62-1.19-1.83-1.8-3.14-1.8h0ZM126.37,484.74c-1.31,0-2.52.61-3.14,1.8l-3.86,7.4,8.12-3.05c1.24-.47,2.06-1.65,2.06-2.98,0-1.75-1.42-3.18-3.18-3.18h0Z"/>
    </g>
    <g>
      <text class="cls-3" transform="translate(203.77 819.62)"><tspan class="cls-7" x="0" y="0">T</tspan><tspan x="26.62" y="0">ánc</tspan></text>
      <text class="cls-2" transform="translate(54.01 865.14)"><tspan x="0" y="0">20:30</tspan></text>
      <path class="cls-4" d="M114.95,739.04c-4.21,0-7.67,3.45-7.67,7.67s3.45,7.67,7.67,7.67,7.67-3.45,7.67-7.67-3.45-7.67-7.67-7.67ZM114.95,742.44c2.37,0,4.26,1.89,4.26,4.26s-1.89,4.26-4.26,4.26-4.26-1.89-4.26-4.26,1.89-4.26,4.26-4.26ZM101.32,750.96c-4.21,0-7.67,3.45-7.67,7.67s3.45,7.67,7.67,7.67,7.67-3.45,7.67-7.67-3.45-7.67-7.67-7.67ZM101.32,754.37c2.37,0,4.26,1.89,4.26,4.26s-1.89,4.26-4.26,4.26-4.26-1.89-4.26-4.26,1.89-4.26,4.26-4.26ZM127.59,754.46c-.37,0-.75.05-1.14.15l-12.89,2.56c-.08.02-.15.04-.23.07-1.53.53-2.72,1.77-3.2,3.32-.02.05-.03.11-.05.17l-.99,4.9-6.8,3.25s-.07.03-.11.05c-.76.44-1.4,1.06-1.84,1.81,0,0,0,0,0,0l-5.11,8.56-5.32,2.75.15-.07c-2.6,1.04-3.89,4.04-2.85,6.64.79,1.98,2.71,3.21,4.74,3.21.63,0,1.28-.12,1.89-.37.05-.01.09-.03.13-.06l6.81-3.41c.98-.4,1.85-.85,2.27-2.21l-.16.37,3.93-6.59,1.87,2.52c-.01.11.01.05-.06.35-.15.63-.49,1.64-1.24,2.98-1.5,2.66-4.67,6.64-11.33,11.43-8.52,6.12-16.22,6.93-16.22,6.93-.87.09-1.52.83-1.52,1.7,0,0,0,2.18,1.21,4.5,1.22,2.32,3.83,4.84,8.4,5.57,3.69.59,6.05-.57,7.27-1.28,1.16,1,3.97,3.14,8.68,3.14,4.39,0,7.01-1.82,8.38-2.92.36.4.28.52.9.93,1.57,1.04,4.07,1.99,7.76,1.99s6.19-.94,7.76-1.99c.71-.47.66-.63,1.02-1.06.31.17.26.22.69.39,1.29.5,3.21.96,5.86.96,3.74,0,6.36-1.51,7.93-3.04,1.56-1.53,2.19-3.17,2.19-3.17.25-.66.06-1.4-.47-1.88-3.52-3.13-6.75-6.43-9.65-9.68v-4.84c0-1.02-.19-2.03-.54-2.99,0-.01-.01-.03-.02-.05l-4.23-10.38h0c-.32-.87-.39-1.8-.23-2.7.89.77,2.04,1.26,3.31,1.26h.64c1.29,0,2.42-.29,3.27-.92s1.3-1.44,1.66-2.15c.59-1.18,1.25-3.07,1.83-4.76.37-1.1.49-1.47.67-2.04.15-.34.28-.69.35-1.05,0,0,.02-.07.02-.07h-.01c.06-.31.09-.62.09-.94,0-2.8-2.31-5.11-5.11-5.11-.09,0-.17,0-.26.02l-1.83.28c-.22-.31-.79-1.1-1.61-2.26-.49-.68-.98-1.37-1.38-1.92-.4-.56-.63-.89-.83-1.14-.9-1.12-2.08-1.4-3.08-1.56-.5-.08-.94-.13-1.36-.13ZM127.27,757.92c-.2.06.59-.05,1.15.04.57.09,1,.38.96.33-.03-.03.33.45.73,1,.4.55.89,1.24,1.37,1.92.31.44.34.47.62.86l-5.35.83h-10.21c-1.21.09-2.42.35-3.58.88l.45-2.21c.16-.51.55-.9,1.04-1.08l12.68-2.52s.1-.03.15-.04ZM137.98,764.6c.94.02,1.67.75,1.67,1.69,0,.13-.05.25-.07.37l-.14.42c-.28.54-.82.91-1.49.91-.09,0-.17,0-.26.02l-10.95,1.68h-8.6c-.5,0-.97.22-1.3.6-.32.38-.47.89-.38,1.38l.92,5.76c-.97.94-2.49,1.63-3.93,2-.87.23-1.63.34-2.18.4l-3.24-4.35c-.34-.45-.89-.71-1.45-.68-.57.03-1.08.34-1.38.83l-5.24,8.78c-.07.12-.12.24-.16.37.18-.57-.07-.01-.41.13-.05.02-.09.03-.13.06l-6.71,3.35c-.21.08-.41.11-.6.11-.67,0-1.31-.39-1.58-1.07-.35-.9.05-1.86.94-2.21.05-.03.11-.05.16-.07l5.75-2.98c.28-.15.51-.37.67-.64l5.36-8.97c.15-.25.36-.45.61-.59l9.84-4.7c.05-.03.11-.05.15-.09.89-.54,1.72-.74,2.9-.83h10.11c.09,0,.17,0,.26-.02l10.85-1.67ZM137.95,771.42c-.35.94-.67,1.78-.89,2.2-.29.57-.47.83-.63.94s-.41.25-1.25.25h-.64c-.96,0-1.7-.74-1.7-1.7v-.9l5.11-.79ZM128.95,772.81l-.91,2.75s-.01.06-.03.09c-.46,1.72-.38,3.55.25,5.21,0,.02.01.03.02.05l4.25,10.43-.02-.05c.21.57.33,1.18.33,1.79v.85c-7.35-8.85-11.86-16.31-12-16.56l-.69-4.26h6.73c.09,0,.17,0,.26-.02l1.82-.28ZM118.89,780.68c2.58,4.05,11.16,16.96,23.7,28.42-.2.36-.19.53-.8,1.12-1.04,1.02-2.68,2.07-5.54,2.07-2.26,0-3.73-.39-4.62-.74-.89-.35-1.05-.53-1.05-.53-.4-.35-.94-.5-1.46-.4s-.96.43-1.2.91c0,0-.14.39-1.12,1.05-.98.66-2.75,1.42-5.87,1.42s-4.88-.76-5.87-1.42-1.12-1.05-1.12-1.05c-.25-.49-.71-.83-1.25-.92s-1.09.09-1.48.48c0,0-2.96,2.91-7.31,2.91s-7.31-2.91-7.31-2.91c-.6-.61-1.56-.67-2.24-.15,0,0-2.36,1.8-5.86,1.24-3.61-.58-5.09-2.24-5.91-3.79-.47-.89-.39-1.12-.47-1.66,2.26-.38,8.35-1.62,15.97-7.11,6.97-5.01,10.51-9.34,12.31-12.53.9-1.59,1.36-2.89,1.58-3.84,0-.03,0-.04.01-.06.65-.09,1.45-.21,2.35-.45,1.44-.37,3.13-.97,4.58-2.06Z"/>
    </g>
    <circle class="cls-4" cx="18.95" cy="1050.97" r="18.95"/>
    <g>
      <text class="cls-3" transform="translate(203.77 1067.95)"><tspan class="cls-8" x="0" y="0">T</tspan><tspan x="26.06" y="0">orta</tspan></text>
      <text class="cls-2" transform="translate(54.01 1113.47)"><tspan x="0" y="0">23:00</tspan></text>
      <g>
        <path class="cls-4" d="M111.4,1016.12c-.41,0-.79-.16-1.08-.44l-14.16-14.11c-1.45-1.48-2.45-3.36-2.85-5.39-1.18-5.68,2.47-11.24,8.15-12.41.72-.15,1.45-.22,2.19-.22.71,0,1.42.07,2.12.21.79.16,1.57.42,2.3.76,1.14.5,2.17,1.22,3.05,2.1l.26.27.26-.26c.88-.88,1.91-1.6,3.05-2.12,5.26-2.47,11.54-.21,14.01,5.05.66,1.41,1.01,2.96,1,4.52,0,.72-.08,1.43-.24,2.13-.33,1.68-1.08,3.26-2.18,4.57-.19.26-.4.5-.62.73l-14.16,14.16c-.29.29-.68.44-1.08.44ZM103.68,986.59c-2,0-3.92.78-5.33,2.19-2.9,2.96-2.9,7.7,0,10.67l13.06,13,13.04-13.04c.15-.14.29-.3.41-.47.81-.96,1.37-2.11,1.62-3.34.12-.5.17-1.01.17-1.52.01-4.13-3.32-7.49-7.46-7.51-1.11,0-2.21.24-3.21.71-.81.37-1.55.89-2.18,1.52l-1.33,1.34c-.59.6-1.56.6-2.16,0,0,0,0,0,0,0l-1.34-1.36c-1.05-1.01-2.37-1.71-3.79-2.03-.49-.11-.99-.16-1.49-.17Z"/>
        <path class="cls-4" d="M126.64,1025.25c-2.88,0-5.71-.68-8.29-1.95-4.38-2.15-9.51-2.15-13.9,0-5.23,2.56-11.35,2.56-16.58,0-2.16-1.07-4.54-1.64-6.95-1.65-.84,0-1.52-.68-1.52-1.52s.68-1.52,1.52-1.52c2.88,0,5.71.68,8.29,1.95,4.38,2.15,9.51,2.15,13.9,0,5.23-2.56,11.35-2.56,16.58,0,4.38,2.15,9.51,2.15,13.9,0,2.58-1.28,5.41-1.94,8.29-1.95.84,0,1.52.68,1.52,1.52s-.68,1.52-1.52,1.52c-2.41,0-4.79.57-6.95,1.65-2.58,1.28-5.41,1.94-8.29,1.95Z"/>
        <path class="cls-4" d="M141.88,1048.11c-2.88,0-5.71-.68-8.29-1.95-4.38-2.15-9.51-2.15-13.9,0-5.23,2.56-11.35,2.56-16.58,0-4.38-2.15-9.51-2.15-13.9,0-5.23,2.58-11.36,2.58-16.6,0-.76-.38-1.06-1.3-.69-2.06.38-.76,1.3-1.06,2.06-.69,4.37,2.18,9.5,2.18,13.87,0,5.24-2.56,11.36-2.56,16.6,0,4.38,2.15,9.51,2.15,13.9,0,5.23-2.56,11.35-2.56,16.58,0,4.38,2.15,9.51,2.15,13.9,0,.76-.37,1.67-.06,2.04.7s.06,1.67-.7,2.04c-2.58,1.28-5.41,1.94-8.29,1.95Z"/>
        <path class="cls-4" d="M151.03,1069.93h-79.24c-.68.04-1.31-.39-1.52-1.04l-3.05-9.14c-.15-.46-.07-.98.21-1.37.3-.42.79-.66,1.31-.64h85.34c.49,0,.95.24,1.23.64.29.4.37.91.21,1.37l-3.05,9.14c-.21.62-.79,1.04-1.45,1.04ZM72.88,1066.88h77.05l2.03-6.1h-81.1l2.03,6.1Z"/>
        <path class="cls-4" d="M149.5,1060.79h-76.2c-.84,0-1.52-.68-1.52-1.52v-18.29c0-4.21,3.41-7.62,7.62-7.62h64.01c4.21,0,7.62,3.41,7.62,7.62v18.29c0,.84-.68,1.52-1.52,1.52ZM74.83,1057.74h73.15v-16.76c0-2.52-2.05-4.57-4.57-4.57h-64.01c-2.52,0-4.57,2.05-4.57,4.57v16.76Z"/>
        <path class="cls-4" d="M141.88,1036.4h-60.96c-.84,0-1.52-.68-1.52-1.52v-18.29c0-4.21,3.41-7.62,7.62-7.62h20.28c.41,0,.79.16,1.08.44l3.05,3.05,3.05-3.05c.29-.29.68-.44,1.08-.44h20.22c4.21,0,7.62,3.41,7.62,7.62v18.29c0,.84-.68,1.52-1.52,1.52ZM82.45,1033.36h57.91v-16.76c0-2.52-2.05-4.57-4.57-4.57h-19.66l-3.64,3.66c-.59.6-1.56.6-2.16,0,0,0,0,0,0,0l-3.64-3.66h-19.66c-2.52,0-4.57,2.05-4.57,4.57v16.76Z"/>
      </g>
    </g>
    <circle class="cls-4" cx="20.11" cy="1288.18" r="18.95"/>
    <g>
      <text class="cls-3" transform="translate(204.93 1304.72)"><tspan x="0" y="0">Éj</tspan><tspan class="cls-23" x="43.4" y="0">f</tspan><tspan x="61.1" y="0">éli menü</tspan></text>
      <text class="cls-2" transform="translate(54.83 1350.24)"><tspan x="0" y="0">24:00</tspan></text>
      <path class="cls-4" d="M128.05,1239.56c-3.22.16-6.56,1.69-9.85,4.56-8.31,7.25-14.93,13.54-29.89,20.33-5.81,2.64-9.47,5.49-11.62,8.46-2.15,2.97-2.69,6.09-2.32,8.7.29,2.06,1.07,3.84,1.92,5.23-.37,3.48.81,6.71,2.39,8.62,2.5,3.02,6.81,3.25,8.54,3.21,2.39,2.83,5.73,5.12,10.18,6.64.07.03.15.07.22.09.14.05.29.1.43.14.18.05.33.13.51.19h0c.15.04.31.07.47.07,1.11.23,2.28.27,3.5.19,3.48-.22,7.41-1.45,11.43-3.12,8.05-3.34,16.44-8.52,21.06-11.93,4.98-3.68,10.93-9.32,15.19-15.15,2.13-2.91,3.85-5.87,4.77-8.76.92-2.89,1.03-5.9-.5-8.39-1.49-2.42-3.38-4.02-5.55-4.49.71-2.41,1.26-6.07-.65-8.84-3.22-4.67-8.13-4.74-12.26-3.27-1.5-1.05-3.09-1.81-4.79-2.21-1.04-.25-2.1-.34-3.17-.29h0ZM128.18,1243.53c.72-.03,1.42.05,2.11.21.49.12.98.29,1.48.51-.83.57-1.54,1.18-2.09,1.75-3.46,3.61-12.31,10.03-20.42,15.78-8.11,5.75-16.74,9.07-26.03,14.9-2.2,1.38-3.78,2.94-4.89,4.57,0-.06-.02-.12-.03-.18-.24-1.73,0-3.6,1.61-5.8,1.59-2.2,4.64-4.71,10.04-7.16,15.4-7,22.62-13.77,30.87-20.96,2.84-2.48,5.2-3.52,7.36-3.61h0ZM138.53,1245.85c1.8.02,3.14.52,3.14.52h0c.91.32,1.39,1.31,1.08,2.23-.32.91-1.32,1.39-2.23,1.08,0,0-3.41-1.09-5.37.92-.76.78-1.06,1.79-1.56,3.25-.51,1.45-1.3,3.31-3.2,4.75-2.13,1.61-4.22,1.64-5.63,1.74-1.41.1-2.35.16-4.21,1.88-1.04.96-1.36,2.16-1.91,3.81-.54,1.65-1.46,3.78-3.78,5.11-2.61,1.49-5.13,1.2-6.97.95-1.83-.24-2.86-.41-4.06.42-.46.32-.98,1.54-1.77,3.36-.79,1.82-2.05,4.12-4.71,5.68-2.71,1.59-5.06,1.34-6.54.95-1.48-.38-1.88-.71-3.29,0-1.95.98-1.96,3.36-1.96,3.36h0c0,.47-.18.91-.51,1.24-.33.33-.77.51-1.23.51-.97,0-1.75-.78-1.75-1.75,0,0-.03-4.52,3.88-6.5,2.38-1.2,4.48-.6,5.75-.27,1.27.33,1.89.58,3.89-.59,1.82-1.07,2.57-2.45,3.26-4.05s1.12-3.56,2.99-4.85c2.27-1.57,4.7-1.25,6.51-1.02,1.81.24,3.13.42,4.78-.52,1.36-.78,1.7-1.66,2.19-3.16.49-1.5,1.01-3.59,2.86-5.29,2.39-2.2,4.69-2.68,6.33-2.8,1.64-.12,2.41,0,3.77-1.04,1.18-.89,1.55-1.81,2.01-3.11.45-1.3.9-3.04,2.37-4.54,1.83-1.88,4.09-2.32,5.88-2.3h0ZM143.76,1253.64c.81.01,1.49.23,2.05.54-1.3.27-2.58.84-3.82,1.56-4.26,2.48-8.7,6.98-13.97,11.44-2.86,2.42-11.8,9.62-21.19,14.25-2.1,1.04-6.75,3-10.27,6.29-1.76,1.64-3.29,3.67-3.93,6.18-.36,1.4-.41,2.93-.1,4.51-.57-.45-1.1-.93-1.58-1.44-.52-1.69-.75-4.81,2.25-8.73,4.57-5.97,15.73-9.95,24.55-15.78,10.18-6.72,17.84-15.71,23.15-18.14,1.11-.51,2.06-.7,2.87-.69h0ZM147.58,1258.02c.13,0,.25.02.37.04.95.16,1.93.77,3.11,2.7.73,1.18.8,2.83.09,5.08-.71,2.25-2.21,4.92-4.18,7.61-3.94,5.38-9.72,10.89-14.34,14.3-4.3,3.17-12.61,8.3-20.21,11.45-3.8,1.58-7.45,2.65-10.16,2.82-1.36.09-2.46-.05-3.23-.34-.77-.29-1.22-.67-1.58-1.34-1.22-2.25-1.34-3.93-.95-5.45.39-1.52,1.39-2.94,2.79-4.25,2.79-2.61,6.98-4.48,9.31-5.62,9.95-4.91,19-12.25,22-14.78,5.42-4.59,9.97-9.05,13.39-11.03,1.5-.87,2.68-1.22,3.58-1.19h0Z"/>
    </g>
    <circle class="cls-4" cx="18.95" cy="1537.7" r="18.95"/>
    <g>
      <text class="cls-3" transform="translate(203.77 1550.67)"><tspan class="cls-23" x="0" y="0">J</tspan><tspan x="24.43" y="0">ó éjsza</tspan><tspan class="cls-28" x="189.67" y="0">k</tspan><tspan class="cls-20" x="217.51" y="0">á</tspan><tspan x="246.07" y="0">t!</tspan></text>
      <text class="cls-2" transform="translate(66.36 1596.19)"><tspan x="0" y="0">2:00</tspan></text>
      <path class="cls-4" d="M141.59,1532.48c-.44-.45-1.13-.57-1.7-.27-3.84,2-7.99,3.01-12.33,3.01-14.77,0-26.79-12.02-26.79-26.79,0-7.48,3.01-14.42,8.48-19.54.46-.44.59-1.12.31-1.69-.28-.57-.9-.89-1.53-.79-15.82,2.57-27.3,16.08-27.3,32.12,0,17.95,14.6,32.55,32.55,32.55,11.88,0,22.82-6.48,28.54-16.9.31-.56.21-1.25-.23-1.7h0ZM113.27,1548.2c-16.36,0-29.66-13.31-29.66-29.66,0-13.08,8.37-24.31,20.44-28.21-3.96,5.16-6.17,11.54-6.17,18.1,0,16.36,13.31,29.67,29.68,29.67,3.17,0,6.25-.49,9.21-1.46-5.57,7.22-14.22,11.55-23.49,11.55h0ZM113.83,1519.79l-.82,4.79c-.09.54.13,1.09.58,1.41.44.32,1.04.36,1.52.11l4.3-2.26,4.3,2.26c.21.11.44.16.67.16.3,0,.6-.09.85-.28.44-.32.67-.87.58-1.41l-.82-4.79,3.48-3.39c.39-.38.53-.96.36-1.48-.17-.52-.62-.9-1.17-.98l-4.81-.7-2.15-4.35c-.24-.49-.75-.81-1.29-.81s-1.05.31-1.29.81l-2.15,4.35-4.81.7c-.54.08-1,.46-1.17.98-.17.52-.03,1.1.36,1.48l3.48,3.39h0ZM117.13,1515.99c.47-.07.88-.36,1.09-.79l1.19-2.41,1.19,2.41c.21.43.62.72,1.09.79l2.66.39-1.93,1.88c-.34.33-.49.81-.41,1.28l.45,2.65-2.38-1.25c-.21-.11-.44-.16-.67-.16s-.46.06-.67.16l-2.38,1.25.45-2.65c.08-.47-.07-.95-.41-1.28l-1.93-1.88,2.66-.39h0ZM120.36,1501.65l3.47,1.67.59,3.81c.08.54.47.99,1,1.15.14.04.29.07.43.07.39,0,.77-.16,1.05-.45l2.66-2.79,3.81.61c.55.08,1.09-.14,1.41-.59.32-.45.35-1.04.09-1.52l-1.83-3.39,1.76-3.43c.25-.49.2-1.08-.12-1.52-.33-.44-.88-.66-1.42-.56l-3.79.69-2.72-2.73c-.39-.39-.96-.53-1.48-.35s-.9.63-.97,1.18l-.51,3.82-3.44,1.74c-.49.25-.8.75-.79,1.3,0,.55.32,1.05.82,1.28h0ZM125.75,1499.55c.42-.21.72-.63.78-1.09l.23-1.67,1.19,1.2c.34.34.82.49,1.28.4l1.66-.3-.77,1.5c-.22.42-.21.92.02,1.34l.8,1.49-1.67-.27c-.47-.07-.95.08-1.28.43l-1.17,1.22-.26-1.67c-.07-.47-.37-.87-.8-1.08l-1.52-.73,1.51-.76h0Z"/>
    </g>
  </g>
</svg>