<?xml version="1.0" encoding="UTF-8"?>
<svg id="Layer_2" data-name="Layer 2" xmlns="http://www.w3.org/2000/svg" viewBox="0 0 115.08 123.93">
  <defs>
    <style>
      .cls-1 {
        fill: #262262;
      }
    </style>
  </defs>
  <g id="Layer_1-2" data-name="Layer 1">
    <g>
      <path class="cls-1" d="M104.01,8.85h-8.85v-2.21c0-3.65-2.99-6.64-6.64-6.64s-6.64,2.99-6.64,6.64v2.21h-48.69v-2.21c0-3.65-2.99-6.64-6.64-6.64s-6.64,2.99-6.64,6.64v2.21h-8.85C4.96,8.85,0,13.81,0,19.92v92.95c0,6.11,4.96,11.07,11.07,11.07h92.95c6.11,0,11.07-4.96,11.07-11.07V19.92c0-6.11-4.96-11.07-11.07-11.07ZM86.31,6.64c0-1.22,1-2.21,2.21-2.21s2.21,1,2.21,2.21v2.21h-4.43v-2.21ZM24.34,6.64c0-1.22,1-2.21,2.21-2.21s2.21,1,2.21,2.21v2.21h-4.43v-2.21ZM110.65,112.87c0,3.65-2.99,6.64-6.64,6.64H11.07c-3.65,0-6.64-2.99-6.64-6.64v-4.49c1.86,1.39,4.14,2.28,6.64,2.28h75.24c.29,0,.58-.07.84-.18s.51-.27.73-.49l22.77-22.77v25.65ZM88.52,103.11v-19.01h19.01l-19.01,19.01ZM110.65,61.97v17.7h-24.34c-1.22,0-2.21,1-2.21,2.21v24.34H11.07c-3.65,0-6.64-2.99-6.64-6.64V35.41h106.23v26.56ZM110.65,30.98H4.43v-11.07c0-3.65,2.99-6.64,6.64-6.64h8.85v4.43c0,3.65,2.99,6.64,6.64,6.64s6.64-2.99,6.64-6.64c0-1.22-1-2.21-2.21-2.21s-2.21,1-2.21,2.21-1,2.21-2.21,2.21-2.21-1-2.21-2.21v-4.43h57.54v4.43c0,3.65,2.99,6.64,6.64,6.64s6.64-2.99,6.64-6.64c0-1.22-1-2.21-2.21-2.21s-2.21,1-2.21,2.21-1,2.21-2.21,2.21-2.21-1-2.21-2.21v-4.43h17.7c3.65,0,6.64,2.99,6.64,6.64v11.07Z"/>
      <path class="cls-1" d="M17.71,97.37h17.7c1.22,0,2.21-1,2.21-2.21v-17.7c0-1.22-1-2.21-2.21-2.21h-17.7c-1.22,0-2.21,1-2.21,2.21v17.7c0,1.22,1,2.21,2.21,2.21ZM19.92,79.67h13.28v13.28h-13.28v-13.28Z"/>
      <path class="cls-1" d="M48.69,97.37h17.7c1.22,0,2.21-1,2.21-2.21v-17.7c0-1.22-1-2.21-2.21-2.21h-17.7c-1.22,0-2.21,1-2.21,2.21v17.7c0,1.22,1,2.21,2.21,2.21ZM50.9,79.67h13.28v13.28h-13.28v-13.28Z"/>
      <path class="cls-1" d="M79.67,66.39h17.7c1.22,0,2.21-1,2.21-2.21v-17.7c0-1.22-1-2.21-2.21-2.21h-17.7c-1.22,0-2.21,1-2.21,2.21v17.7c0,1.22,1,2.21,2.21,2.21ZM81.88,48.69h13.28v13.28h-13.28v-13.28Z"/>
      <path class="cls-1" d="M48.69,66.39h17.7c1.22,0,2.21-1,2.21-2.21v-17.7c0-1.22-1-2.21-2.21-2.21h-17.7c-1.22,0-2.21,1-2.21,2.21v17.7c0,1.22,1,2.21,2.21,2.21ZM50.9,48.69h13.28v13.28h-13.28v-13.28Z"/>
      <path class="cls-1" d="M17.71,66.39h17.7c1.22,0,2.21-1,2.21-2.21v-17.7c0-1.22-1-2.21-2.21-2.21h-17.7c-1.22,0-2.21,1-2.21,2.21v17.7c0,1.22,1,2.21,2.21,2.21ZM19.92,48.69h13.28v13.28h-13.28v-13.28Z"/>
    </g>
  </g>
</svg>