<?xml version="1.0" encoding="UTF-8"?>
<svg id="Layer_2" data-name="Layer 2" xmlns="http://www.w3.org/2000/svg" viewBox="0 0 97.86 79.22">
  <defs>
    <style>
      .cls-1 {
        fill: #262262;
      }
    </style>
  </defs>
  <g id="Layer_1-2" data-name="Layer 1">
    <path class="cls-1" d="M26.12,13.87h-7.48c-7.72,0-13.98,6.27-13.98,14v32.67c0,7.73,6.26,14,13.98,14h60.58c7.72,0,13.98-6.27,13.98-14V27.88c0-7.73-6.26-14-13.98-14h-7.49c-1.88,0-3.61-1.03-4.51-2.69l-2.36-4.36c-.72-1.33-2.11-2.16-3.63-2.16h-25c-1.41,0-2.7.79-3.34,2.05l-2.21,4.35c-.87,1.72-2.64,2.81-4.57,2.81ZM26.12,9.21c.18,0,.34-.1.42-.26l2.21-4.35c1.43-2.82,4.33-4.6,7.49-4.6h25c3.22,0,6.19,1.77,7.72,4.6l2.36,4.36c.08.15.24.24.41.24h7.49c10.29,0,18.64,8.36,18.64,18.67v32.67c0,10.31-8.35,18.67-18.64,18.67H18.64c-10.29,0-18.64-8.36-18.64-18.67V27.88C0,17.56,8.35,9.21,18.64,9.21h7.48ZM18.64,32.54c-2.57,0-4.66-2.09-4.66-4.67s2.09-4.67,4.66-4.67,4.66,2.09,4.66,4.67-2.09,4.67-4.66,4.67ZM48.93,65.21c-11.58,0-20.97-9.4-20.97-21s9.39-21,20.97-21,20.97,9.4,20.97,21-9.39,21-20.97,21ZM48.93,60.55c9.01,0,16.31-7.31,16.31-16.34s-7.3-16.34-16.31-16.34-16.31,7.31-16.31,16.34,7.3,16.34,16.31,16.34Z"/>
  </g>
</svg>