<?xml version="1.0" encoding="UTF-8"?>
<svg id="Layer_2" data-name="Layer 2" xmlns="http://www.w3.org/2000/svg" viewBox="0 0 111.93 99.15">
  <defs>
    <style>
      .cls-1 {
        fill: #262262;
      }
    </style>
  </defs>
  <g id="Layer_1-2" data-name="Layer 1">
    <path class="cls-1" d="M55.96,0c-.46,0-.91.19-1.23.52-.33.33-.51.77-.51,1.24v8.95c0,.46.18.91.51,1.24.33.33.77.52,1.23.52.46,0,.91-.18,1.24-.51s.51-.77.51-1.24V1.76c0-.46-.18-.91-.51-1.24S56.42,0,55.96,0h0ZM70.18,8.43c-.47,0-.91.19-1.24.52l-6.33,6.33h0c-.33.33-.52.77-.52,1.24s.19.91.52,1.24c.68.67,1.78.67,2.46,0l6.34-6.34c.68-.68.68-1.78,0-2.47-.33-.33-.77-.52-1.24-.52ZM41.63,8.44c-.43.03-.83.21-1.13.51-.67.68-.67,1.78,0,2.47l6.33,6.34c.33.33.77.51,1.24.51s.91-.19,1.24-.51c.33-.33.51-.77.51-1.24s-.18-.91-.51-1.24l-6.34-6.33c-.35-.35-.84-.54-1.34-.51h0ZM28.59,17.53c-.67-.09-1.33.22-1.7.78l-11.88,18.31c-3.2,4.74-3.16,10.52-1.07,15.49,1.87,4.46,5.35,8.4,9.76,10.8l-6.41,14.58-13.93,4.56c-2.05.67-3.27,2.55-3.36,4.4-.09,1.86.93,3.84,2.91,4.72l17.21,7.57c1.98.87,4.14.28,5.45-1.05,1.31-1.32,1.86-3.48.97-5.45l-6.04-13.34,6.41-14.58c4.74,1.64,9.94,1.57,14.48-.05,5.06-1.81,9.34-5.66,10.79-11.26l2.08-8.01h0c0-.06.02-.1.03-.14l1.68-6.5,1.69,6.52h0s0,.01,0,.02l2.1,8.09c1.45,5.6,5.73,9.45,10.79,11.26,4.53,1.62,9.73,1.69,14.46.06l6.43,14.57-6.05,13.35c-.89,1.97-.32,4.13.99,5.45,1.31,1.32,3.47,1.92,5.45,1.05l17.2-7.57c1.98-.87,3.01-2.86,2.92-4.72-.09-1.86-1.32-3.73-3.37-4.4l-13.92-4.56-6.42-14.57c4.41-2.41,7.89-6.35,9.76-10.81,2.08-4.97,2.14-10.73-1.05-15.47h-.01s-11.87-18.33-11.87-18.33h0c-.46-.71-1.38-.99-2.17-.64l-26.9,11.84-26.89-11.84c-.15-.07-.31-.11-.47-.13h0ZM29.01,21.47l24.88,10.93-2.08,8.01c-.36-.37-.77-.74-1.22-1.1-2.67-2.12-7.13-3.99-13.93-3.5-6.07.44-9.5-1.16-11.5-2.75-1.13-.9-1.79-1.76-2.15-2.34l6-9.26ZM82.9,21.47l6.01,9.25c-.35.58-1,1.44-2.14,2.34-2,1.59-5.43,3.19-11.51,2.75-6.8-.49-11.27,1.38-13.95,3.5-.46.36-.87.74-1.22,1.11l-2.08-8.01,24.88-10.94ZM21,33.83c.52.63,1.18,1.31,1.99,1.96,2.67,2.12,7.13,3.99,13.93,3.5,6.07-.44,9.5,1.16,11.51,2.75,1.33,1.06,2,2.06,2.3,2.61l-1.94,7.47c-1.13,4.37-4.39,7.35-8.57,8.84-4.18,1.5-9.24,1.39-13.51-.49h0s0,0,0,0c-4.27-1.88-7.78-5.59-9.51-9.72-1.73-4.13-1.73-8.54.74-12.18h0s.02-.03.02-.03l3.06-4.72ZM90.93,33.83l3.06,4.71h0s0,.02.01.03c2.46,3.65,2.47,8.05.74,12.18-1.73,4.13-5.24,7.84-9.5,9.72-4.28,1.88-9.33,1.98-13.51.49-4.19-1.5-7.45-4.47-8.58-8.84l-1.94-7.46c.3-.55.97-1.56,2.31-2.62,2-1.59,5.43-3.19,11.5-2.75,6.8.49,11.26-1.38,13.93-3.5.82-.65,1.47-1.33,1.99-1.96h0ZM17.63,81.06l5.73,12.63c.3.66.11,1.15-.29,1.55-.39.4-.89.59-1.55.3l-17.2-7.58c-.66-.29-.87-.78-.84-1.34.03-.56.28-1.03.97-1.25l13.17-4.3ZM94.29,81.06l13.18,4.3c.68.22.93.69.96,1.25.03.56-.17,1.05-.83,1.34l-17.2,7.58c-.66.29-1.16.1-1.55-.3-.39-.4-.58-.89-.28-1.55l5.72-12.62Z"/>
  </g>
</svg>