<?xml version="1.0" encoding="UTF-8"?>
<svg id="Layer_2" data-name="Layer 2" xmlns="http://www.w3.org/2000/svg" viewBox="0 0 488.95 378.89">
  <defs>
    <style>
      .cls-1 {
        fill: #262262;
      }
    </style>
  </defs>
  <g id="Layer_1-2" data-name="Layer 1">
    <g>
      <path class="cls-1" d="M120.07,177.09c-1.36-2.6-2.6-5.2-3.95-7.79-.45-.56-.79-1.36-1.02-2.03-.45-.79,0-1.36.45-1.81.56-.56,1.24-.56,1.81,0,.56.45,1.24.79,1.81,1.02,5.42,3.61,10.73,7.57,14.57,12.99,2.37,3.39,4.74,7,7,10.39.45.45.56,1.02,1.02,1.58v-.56c-.56-2.6,0-5.2,0-7.79,0-1.02.23-1.81,1.36-2.03,1.02,0,1.36.79,2.03,1.58,4.97,7.34,9.04,15.59,12.54,23.72.56,1.36,1.02,2.82,1.58,4.18.23-2.03.56-3.84.79-5.76,0-.56,0-1.02.23-1.58.56-1.36,1.81-1.58,2.82-.56.23.23.45.56.56.79,1.36,2.82,2.82,5.42,3.84,8.13,2.03,5.2,3.84,10.17,5.42,15.36.79,2.15,1.24,4.63,2.03,7.23.79-2.37,1.36-4.4,2.15-6.55v-.79c.23-.79.45-1.36,1.36-1.58.79,0,1.36.45,1.81,1.02.79,1.81,1.81,3.61,2.37,5.42,1.24,3.39,2.6,6.78,3.39,10.39,1.36,5.65,2.6,11.41,3.84,16.94,0,.56.45,1.36.56,2.15.56-1.02,1.02-1.81,1.36-2.6,1.24-2.37,2.37-4.63,3.61-7,0-.23.23-.45.45-.79,1.02-1.24,2.37-1.24,3.05.45s.79,3.16,1.24,4.74c1.02,6.44,2.15,12.99,3.16,19.31.23,1.36.23,3.05.45,4.63,1.81-.23,3.05-1.02,4.18-2.03.45-.45.56-.79,1.02-1.02.56-.56,1.24-.79,2.03-.45s.79,1.02.56,1.81c-.45,2.03-1.02,3.95-2.03,5.76-.56,1.02-1.24,2.03-1.81,3.16,2.37,1.24,4.74,2.15,7.23,3.61,2.48,1.47,4.63,2.82,6.78,4.4,1.58,1.02,1.36,2.6-.45,3.39-1.58.56-3.39.79-5.2,1.24h-2.6c.45,1.02.79,2.03.79,2.82s-.56,1.81-1.02,2.6c-1.58,1.24-3.16-.45-4.97,0,.79,2.03,1.58,3.84,2.6,5.76,1.24,2.6,1.36,5.42,1.36,8.13,0,1.36-.23,2.82-1.81,3.61-.56-.45-1.24-.79-1.81-1.24-2.15-6.55-2.6-7.23-4.74-9.15,0,1.02.79,1.58,1.02,2.37,1.58,2.6,2.82,5.42,2.6,8.58,0,3.39-.56,6.55-1.02,9.83-.23,2.15.45,4.4.79,6.44,1.24,4.74,4.4,8.58,8.02,11.97,1.02.79,2.03,1.81,2.82,2.6,1.24,1.02,2.37,1.81,3.61,2.6.79-.45,1.24-.79,1.58-1.02,3.95-2.6,9.94-1.81,12.76.79,0,0,.23,0,.45.23,2.6,2.6,3.16,5.2.45,8.36-1.02,1.24-2.37,2.15-3.84,3.39-1.02.79-2.03,1.02-3.16.79-2.6-.45-5.2-.45-7.57-2.03-3.84.79-7.79,1.58-11.63,2.6-4.4,1.02-9.04,2.03-13.55,2.03-4.18,0-8.13-.56-12.2-1.58-6.21-1.58-11.75-4.18-17.17-7.34-1.58-1.02-3.39-1.81-5.2-2.82s-3.84-1.81-5.65-2.82c-4.74-2.15-9.83-3.84-15.13-3.95-3.95-.45-8.02-.56-11.97-1.02h-3.61c-1.81,1.58-3.05,3.84-3.95,5.99-.45,1.02-.45,2.15.23,3.16.56,1.02,1.24,2.03,1.81,3.05,1.36,2.15,1.81,4.4,1.24,6.78-.45,2.03-1.81,3.05-3.84,2.82-2.37,2.82-4.4,3.16-6.44,1.58-3.16,2.15-5.99,2.03-8.81-.79-1.24-1.24-2.15-2.82-3.39-4.18-1.36,2.15-3.39,2.6-5.76,2.03-1.24,1.02-2.6,2.03-4.4,1.58-1.58-.45-3.16-1.24-4.4-2.6-1.58-2.37-3.61-4.63-4.4-7.34-1.02-3.95-1.36-8.02-.79-11.97.23-2.15.45-4.63.79-6.78.79-4.18,2.15-8.02,4.4-11.75.23-.45.45-.79.56-1.24-1.24-.79-2.15-1.36-3.16-2.03-3.16-2.37-6.44-4.74-9.6-7.23-5.65-3.95-10.39-9.04-14.57-14.23-2.82-3.39-5.65-6.78-8.58-10.39,0,.56,0,1.02.23,1.24.56,1.24,1.36,2.6,2.03,3.84.56,1.36,1.24,2.6,1.81,3.95,0,.23.23.45.23.79.45,2.15-.45,3.39-2.82,3.39-3.05,4.74-4.74,5.2-8.81,1.81-3.84,1.58-6.78-.23-9.37-2.82-3.84-3.84-5.76-8.36-6.78-13.55-1.02-5.2,2.15-10.73,7.23-13.55,1.58-.79,3.05-1.81,4.63-2.6-.79-2.15-1.58-3.95-2.15-5.99-2.03-1.02-4.4-2.03-5.99-3.39-1.81-1.36-3.84-2.6-4.97-4.4,0-1.36,1.02-1.81,2.03-2.15,1.02-.45,2.15-.79,3.39-1.36-2.6-1.81-5.2-2.37-7.57-3.61-.56.45-1.24,1.02-1.58,1.36.23,2.15,1.24,3.95,1.81,5.76.45,1.24.79,2.6,1.02,3.84,0,.79,0,1.58-.56,2.37-.79,1.36-1.81,1.81-3.39,1.36-.23,0-.56,0-.79-.23-2.15,2.15-3.05,2.37-5.65,1.02-2.82,1.36-5.2,1.02-7.34-1.36-1.36-1.36-2.15-3.05-2.6-4.74-.45-1.58-1.02-3.16-1.36-4.63-.56-1.36-1.36-2.6-2.6-3.61-4.18-3.84-2.6-8.81.45-11.63,1.24-1.24,2.6-2.15,3.95-3.16-1.24-1.81-2.6-3.61-3.84-5.42h-.23c-.79,0-1.58,0-1.58-1.24,0-.79.79-1.81,1.58-2.03,1.02-.23,2.15-.45,3.16-.45,2.03-.23,3.95-.45,5.99-.56.23,0,.45,0,.79-.23,0-1.02-.79-1.58-1.24-2.15-3.05-3.05-5.76-6.44-9.37-9.04-1.58-1.02-1.58-2.03,0-3.16,2.03-1.81,4.63-2.6,7.23-3.16,1.36-.45,3.05-.56,4.74-1.02-.45-.45-.79-.56-1.02-.79-2.6-1.36-4.97-2.6-7.57-3.95-1.24-.56-2.6-.79-3.95-.45-1.02.45-2.03,0-2.15-.79-.45-.79-.23-1.58.45-2.37,3.84-4.63,8.13-8.02,13.55-10.17,3.16-1.36,6.21-2.37,9.37-3.84,0,0-.23-.45-.45-.45-2.15-1.02-4.4-2.03-6.55-2.82-1.58-.56-3.16-1.02-4.74-.56h-.56c-1.02,0-1.81-.45-2.03-1.24-.23-1.02,0-1.58,1.02-2.03,1.58-1.02,3.39-1.81,4.97-2.6,4.63-1.81,9.37-2.82,14.23-3.39,2.15-.23,4.63-.23,6.78-.45.56,0,1.36,0,2.03-.23-2.6-1.58-4.97-3.16-7.79-3.95-1.02-.23-1.81-.45-2.6-1.02-1.81-1.02-1.81-2.82-.23-3.95.56-.45,1.36-.79,2.15-1.02,3.95-1.24,8.13-1.81,12.42-1.02,1.24.23,2.15,0,3.39,0,4.18,0,8.13.56,12.2,1.36h1.36c-1.81-1.81-3.61-3.16-5.42-4.18-1.02-.56-2.15-1.24-3.16-1.81-1.02-.79-1.36-1.36-1.24-2.37.45-1.02,1.24-1.36,2.15-1.58,8.13-.56,16.38-.45,24.17,2.82.79.45,1.58.56,2.15.79-.79-2.03-3.39-5.65-4.97-7-.45-.45-1.02-.79-1.36-1.02-.79-.56-1.02-1.24-.79-2.15.23-1.02,1.02-1.36,1.81-1.36,1.24,0,2.37,0,3.61.45,9.04,2.15,17.39,5.99,24.51,11.97l.79.45c-.45-1.24-1.02-1.81-1.58-2.6-.45-.56-.79-1.02-1.24-1.58-.45-.79-.45-1.58.23-2.15s1.36-.56,2.03,0c2.6,1.58,5.2,3.05,7.34,4.74,3.05,2.37,5.99,5.2,8.81,7.79,1.24,1.02,2.15,2.37,3.16,3.61,0,0,.23,0,.45-.23v.45-.56l-.56.11ZM160.39,224.08s-1.58-.56-2.15-.79c0-1.81,0-3.16-.45-4.63-1.24-4.4-2.15-8.58-3.95-12.76-2.15-5.2-4.74-10.39-7.34-15.59-.45-.79-.79-1.58-1.81-2.37,0,1.36.45,2.6.45,3.84.45,2.6-.45,5.2-.79,7.57,0,.79-.56,1.24-1.36,1.24-.79-.45-1.24-1.02-1.36-1.81-.45-1.36-1.02-3.05-1.58-4.4-1.58-2.82-3.39-5.65-5.42-8.36-3.05-4.4-6.21-8.81-10.39-12.2-.79-.56-1.58-1.36-2.6-2.03,0,1.02.23,1.58.56,2.37.79,1.58,1.36,3.16,2.15,4.63,1.02,2.15,1.02,4.4.56,6.55,0,.79-.56,1.24-1.58,1.24-.45-.45-1.02-.79-1.36-1.36-2.03-2.15-3.84-4.63-5.65-7-.79-1.02-1.58-1.81-2.37-2.82-2.37-2.15-4.74-4.4-7.34-6.55-.23-.23-.56-.45-1.24-.56.45,1.02.79,1.81,1.02,2.6.45,1.58.79,3.16,1.02,4.63,0,1.24-.45,2.03-1.24,2.03-1.02,0-1.58-.45-2.03-1.02,0,0,0-.23-.23-.45-1.24-1.58-2.15-3.16-3.84-4.63-6.21-5.65-13.21-9.6-21.35-11.97h-1.24c1.02,1.36,1.81,2.82,2.6,3.95,1.58,2.15,3.16,4.63,3.95,7.23.23.56.45,1.36.45,2.15,0,1.24-1.24,1.58-2.15,1.24-.45-.23-1.02-.56-1.36-1.02-.56-.45-1.24-1.02-1.81-1.58-2.03-1.58-4.63-2.6-7.23-3.39-4.18-1.36-8.58-2.6-13.21-2.15-.45,0-1.02,0-1.58.45.79.79,1.58,1.24,2.15,1.81,2.82,2.15,4.97,4.74,7,7.79.45.56.56,1.24.79,1.81.23,1.58-1.02,2.6-2.6,2.03-.45-.23-1.02-.56-1.36-.79-1.58-1.24-3.16-2.03-4.97-2.6-3.84-1.24-7.57-1.58-11.63-1.58-2.6,0-4.97,0-7.57-.45-2.03-.23-3.84,0-5.76.45.56.45,1.02.56,1.36.79,3.16,2.03,6.55,3.84,9.83,5.76.56.45,1.24.79,1.58,1.24,1.36,1.36,1.24,2.82-.79,3.61-4.4-1.36-8.81-1.81-12.99-1.36-2.82.23-5.76.79-8.58,1.36-2.37.45-4.74,1.02-7.34,2.15,2.15,1.02,4.18,1.81,5.99,2.6,2.15,1.02,4.18,2.03,6.44,3.16.79.45,1.24,1.02,1.81,1.58.45.56.56,1.24.23,2.03-.45.56-1.02,1.02-1.58,1.02h-1.24c-1.02,0-2.03-.23-3.05,0-5.76,1.24-10.96,3.39-15.93,6.78-1.24.79-2.37,1.58-3.39,3.05.56.23,1.24.45,1.58.56,3.84,1.81,7.57,3.61,10.73,6.44.79.79,1.36,1.58,2.15,2.37.45.56.45,1.36,0,2.03-.45.56-1.24.79-2.03.56-1.24,0-2.15-.45-3.39,0-2.15.45-4.4,1.02-6.55,1.58-.56,0-1.36.56-2.03.79,2.6,2.6,4.97,4.74,7.34,7.23,2.03,1.81,3.61,3.95,4.63,6.44.79,1.81.45,3.05-1.81,3.84-.45-.45-1.02-.79-1.58-1.24-2.6.23-4.97.45-7.57,1.02.23.45.45.56.56.79,1.24,2.03,3.39,3.16,4.97,4.74,3.05,3.16,6.78,5.42,10.39,8.02,3.05,2.15,6.55,3.61,9.83,5.2,1.58.79,3.05,1.36,4.74,1.36.45,0,1.02,0,1.36.23.56.23,1.02.56,1.24,1.24,0,.79-.23,1.36-1.02,1.58-.23,0-.56,0-.79.23-1.81,1.02-3.39,2.03-5.2,3.05,1.58,2.03,2.15,2.37,3.95,3.16,3.61,1.36,7.23,2.6,10.73,3.84,1.58.45,3.16.56,4.74.79h3.39c2.15,0,2.82,1.36,1.81,3.16-.45.79-.79,1.36-1.36,2.15,3.16,1.81,6.44,3.61,9.83,4.63,2.37.79,4.97,1.24,7.79,1.02,1.02.45,1.02,1.36,1.02,2.15s-.56,1.02-1.36,1.36c-1.36.56-2.82,1.36-4.18,2.03,1.58,1.36,3.16,2.37,4.97,2.82,1.24.23,2.15.56,3.39,1.02,4.97,1.24,10.17,2.15,15.36.56,1.36-.45,2.6-.45,3.61,1.02.23.23.56.45,1.02.56,2.37,1.02,3.39,3.16,3.61,5.65v2.15c.79-.45,1.36-.56,2.03-1.02,1.58-.79,3.16-1.58,4.63-2.6,1.58-.79,3.39-1.24,5.42-1.02,3.16.45,6.55.79,9.6,2.15h.56c.45-1.58,1.02-3.16.56-4.97-.23-1.02.45-2.03,1.02-2.15.79-.45,1.58,0,2.15.79,0,0,.23.45.45.45,1.02.79,1.81,1.81,2.82,2.15,3.16,1.36,6.44,2.6,9.6,3.84.79.23,1.58.56,2.37,0,0-2.6-2.6-3.84-3.16-5.76,1.02-1.81,1.36-2.03,2.82-1.36,3.05,1.02,5.99,2.15,9.04,3.16.56.23,1.36.45,2.37.79-.79-1.36-1.24-2.6-1.81-3.61-.45-.79-.45-1.58.45-2.15.56-.56,1.36-.56,2.03,0,.79.45,1.81,1.02,2.6,1.36,2.03,1.24,3.95,2.15,5.99,3.39v-.79c-.56-1.81-.45-3.39.23-5.2.79-2.37,2.15-4.4,3.95-6.21,1.36-1.36,3.16-2.37,4.63-3.61,4.18-3.05,8.81-2.6,13.33-1.24,1.36.45,2.82,1.02,3.39,2.37,1.24,2.03,2.15,4.18,2.03,6.55-.45,3.84-1.36,7.34-4.4,10.17-.23,0-.45.45-.45.56,1.02,1.36,2.03,2.6,2.6,3.95,1.02,1.81,2.03,3.61,3.39,4.97.23.23.56.45,1.02.79.23-.79.45-1.36.45-2.03v-1.58c.23-2.15,1.58-3.16,3.84-2.6,1.58.56,3.05,1.24,4.18,2.15,2.15,1.58,3.95,3.39,6.21,5.2-.56-2.6-2.03-4.74-3.39-7.34-.56,0-1.58,0-1.81-1.58.45-.23,1.02-.79,1.58-.79,1.36,0,2.6,0,3.95.23,1.02,0,2.03.45,3.05.45v-.45s-1.36-2.03-2.37-2.82c-.45-.45-1.02-.79-1.36-1.36-.23-.45-.45-1.02-.23-1.36,0-.45.79-.79,1.24-.79.79,0,1.36.23,2.15.45,2.15.56,4.4.45,6.78-.45l-.79-.79c-3.61-2.15-7.23-4.4-11.18-5.65-1.58-.56-2.03-1.58-1.24-3.16.45-.79,1.02-1.36,1.36-2.15.45-.79,1.02-1.36,1.02-2.15-1.58.45-2.82.79-4.18,1.02-1.58.23-2.15-.45-2.15-2.03,0-1.81,0-3.61-.45-5.42-1.02-5.76-2.03-11.75-3.05-17.62,0-.56-.45-1.24-.56-2.15-.45.79-.79,1.36-1.02,1.81-1.24,2.15-2.15,4.63-3.39,7-.45,1.02-1.02,2.03-1.58,2.82-.23.45-1.02.56-1.58.56-.79,0-.79-.79-.79-1.36,0-1.81-.45-3.84-.79-5.65-1.24-5.2-2.6-10.39-3.61-15.59-1.02-4.63-2.6-9.04-3.95-13.33,0-.45-.45-.79-.79-1.36-.79,2.37-1.58,4.63-2.15,6.78-.45,1.81-.79,3.61-1.24,5.42-.23,1.02-.79,1.36-1.81,1.36s-1.58-.79-1.36-1.81c.45-1.81,0-3.39-.45-5.2-.79-3.61-1.24-7.23-2.6-10.62-1.58-4.63-3.16-9.04-4.74-13.55-.56-1.36-1.02-2.82-1.58-4.4-.56,1.36-.79,2.82-1.02,4.18-.45,2.6-.56,4.97-1.02,7.57,0,.79-.45,1.58-.79,2.82h0l1.24,1.24-.34-.34ZM218.9,358.48c-2.03-1.58-3.61-3.16-5.42-4.74-3.95-3.61-7.34-7.79-9.04-13.21-.79-2.6-1.36-5.2-1.02-7.79.45-2.82.79-5.42,1.02-8.13,0-1.24,0-2.37-.23-3.61-.45-3.39-2.6-5.99-4.18-8.81-.56-1.02-1.24-2.03-.79-3.39-.79-.45-1.58-.79-2.37-1.02-.23,1.36-.45,2.6-.56,3.61-.45,1.36-1.36,2.6-2.6,3.16-1.02.45-1.81.45-2.37-.45-2.03-2.15-3.84-4.63-4.74-7.34-.56-1.36-1.36-2.37-2.6-3.16-.56-.45-1.02-1.02-1.36-1.36,0-1.58,1.36-2.6,2.15-3.39,2.6-2.6,3.39-5.76,3.39-9.15,0-2.03-.79-3.95-2.82-4.74-3.61-1.36-7.34-1.81-10.73.79-.56.45-1.36.79-2.03,1.36-2.82,2.03-4.74,4.63-5.76,7.79,0,.79-.23,1.58,0,2.15.45,1.58.45,3.39,2.03,4.74.23.23.23.56.45.79-.79,1.24-1.02,1.36-1.81,1.36s-1.36-.23-2.15-.56c-1.58-.79-3.16-2.03-4.74-2.82-.45-.23-.79-.45-1.58-.79.56.79,1.02,1.36,1.36,1.81.79,1.36,0,2.6-1.58,2.6-.45,0-1.02,0-1.36-.23-1.81-.56-3.61-1.02-5.42-1.58-1.58-.56-3.16-1.24-4.97-1.81v1.81c0,3.05-1.36,4.63-4.4,4.18-1.81-.23-3.39-.79-4.97-1.36-3.05-1.02-5.76-2.37-9.04-3.61-.23,1.36-.56,2.6-.56,3.95,0,2.03-1.24,2.82-2.82,1.58-2.37-1.58-4.97-2.37-7.79-3.05-3.16-.56-6.44-.45-9.15,1.36-.79.56-1.58,1.02-2.37,1.36-1.36.79-2.6,1.36-3.95,2.03-1.58.79-3.05-.45-2.6-2.03.45-1.36.23-2.82,0-4.18-.23-2.82-2.6-4.4-5.2-3.84-2.15.45-4.18.79-6.44.56-5.2,0-9.94-1.24-14.8-3.05-2.37-.79-4.4-2.6-5.99-4.4-1.36-1.58-1.02-2.82,1.02-3.61.23,0,.45,0,1.02-.45-3.84-1.02-6.78-2.6-9.94-4.18-1.81-1.02-3.61-2.03-5.76-2.6-.79,0-1.36-.56-1.36-1.36.23-1.36,1.36-1.36,2.37-2.03-1.81-.23-3.39-.56-5.2-.79-1.58-.23-3.16-1.24-5.2-1.36.56,1.58,1.02,2.82,1.58,4.18.45.79.79,1.58,1.24,2.15,2.15,3.05,4.18,6.21,6.44,9.04,4.63,5.99,9.15,11.97,14.01,17.73,2.6,3.05,5.42,5.99,8.36,8.36,4.18,3.39,8.58,6.55,12.99,9.83,1.02.79,2.15,1.36,3.16,2.03,1.02-.56,1.81-2.03,3.16-1.24.56.79,0,1.58-.45,2.15-2.37,2.82-3.95,5.99-5.2,9.37-1.36,3.95-2.03,8.02-2.15,11.97,0,2.82,0,5.76.45,8.81.45,3.39,2.37,5.99,4.4,8.58.45.79,1.58,1.02,2.37,1.36,1.24.45,2.03-.45,2.03-1.58,0-.56-.23-1.24-.45-1.81-.79-1.81-1.58-3.39-2.15-4.97,1.02-1.36,1.58-1.58,2.6-.56.79.79,1.24,1.81,1.58,2.82.79,1.58,1.24,3.39,2.03,5.2.56,0,1.24,0,1.81-.23v-1.36c-.79-2.03-1.36-3.95-2.82-5.65-.45-.45-.79-1.02-1.02-1.58s-.23-1.36.45-1.58h1.36s.56.56.79.79c1.02,1.36,1.81,2.6,3.05,4.18v-2.37c-.56-.79-1.36-1.36-1.58-2.15-.56-2.03-1.36-3.84-.79-5.99v-1.24c.45-1.58.56-3.39,1.24-4.74,1.02-2.6,2.82-4.74,5.65-5.99,1.58-.79,3.16-.45,4.18,1.02s2.15,2.15,3.61,2.82c1.02.45,2.03.79,3.05,1.36,1.36.79,2.82,1.02,4.4,1.02s3.16,0,4.74.23c4.4.45,8.81.79,13.33,1.02,5.2,0,10.17,1.36,15.13,3.16,3.05,1.24,5.76,2.6,8.58,3.95,2.15,1.02,4.18,2.15,6.21,3.39,3.95,2.37,8.13,4.63,12.76,5.99,5.99,2.03,11.97,2.6,18.18,2.15,1.36,0,2.6-.45,3.84-.56v-.45s-1.81-.45-2.6-.56c-5.42-1.02-10.39-2.6-15.13-5.2-5.42-2.6-9.15-6.78-11.75-12.2-.79-1.58-1.36-3.61-.23-5.42,2.03-.23,2.15,0,2.6,1.58.23,1.36.79,2.82,1.58,3.84.45.56.79,1.36,1.36,2.03,1.02,1.36,2.03,2.82,3.39,3.84,3.95,3.39,9.04,5.65,14.01,7,5.42,1.58,10.73,2.6,16.38,3.39h.79c1.58-.45,3.16-.79,4.74-1.36-1.36-2.03-.79-4.18-.79-6.21h0l-1.02,1.36-.56.34ZM49.93,312.51c2.37-1.36,2.82-2.82,1.58-4.97-.56-1.02-1.36-2.03-2.03-3.16-.45-.79-.79-1.58-.23-2.82h2.03c-1.02-2.15-1.58-4.63-.56-7-2.6-3.61-4.97-7.23-7.57-10.73-1.36.79-2.6,1.58-3.84,2.6s-2.6,2.03-3.61,3.16c-2.03,2.15-2.82,4.63-2.15,7.57.56,2.15,1.36,4.63,2.37,6.55,1.24,2.37,3.05,4.4,5.2,5.76,1.02.56,2.03,1.02,3.16.56,1.36-2.03-1.36-3.05-1.36-4.97.23-.23.79-.79,1.02-1.24,3.16,1.02,4.4,3.16,4.18,7.23.45.45,1.02,1.02,1.58,1.58h0l.23-.23v.11ZM19.55,273.32c1.81-1.58,1.81-3.39,1.02-5.42-.45-.79-.79-1.58-1.24-2.15-.45-.79-.45-1.58.23-2.15,1.36-.56,2.03.79,2.82,1.36-.56-3.05-.45-5.42.56-7.23-4.63-3.16-9.37-5.76-12.99-9.83-1.36,1.24-2.6,2.37-3.84,3.39-.45.45-1.02.79-1.36,1.24-1.58,2.03-1.58,3.95.23,5.99,2.6,2.37,3.84,5.42,4.4,9.04,0,.56,0,1.36.45,2.03,1.02,2.03,2.15,3.84,4.74,3.95.23-.56.79-1.02.79-1.58,0-1.02,0-2.03-.23-3.05,0-.79-.45-1.36,0-2.03,1.58,0,2.03.23,2.37,1.81.23,1.36.23,2.6.45,4.18.45,0,.79.45,1.24.56h0l.45-.23-.11.11ZM111.83,348.09c-3.39,3.16-5.42,7-5.99,11.41,0,1.24-.23,2.15-.23,3.39,0,3.05.45,5.99,2.6,8.36.79.79,1.58,1.58,2.82,2.03,1.36.56,2.37,0,2.37-1.58,0-1.36,0-2.82-.79-4.18-.45-.79-.45-1.36.45-2.03.56-.45,1.36,0,2.15.56.79,1.02,1.24,2.37,1.36,3.84v3.61c.79-.45,1.58-.56,2.15-.79,1.02-1.58.79-3.05,0-4.4-.56-1.02-1.24-2.03-1.81-2.82-.45-.56-.56-1.24,0-1.81.45-.45,1.36-.56,2.03,0,.45.45.79.79,1.02,1.24.56.79,1.02,1.58,1.58,2.37,0-1.36-1.02-2.37-1.58-3.61-1.02-1.58-1.36-3.16-1.02-4.97.23-1.24.79-2.37,1.24-3.39.56-1.24,1.36-2.37,2.15-3.84-3.84.23-6.78-2.03-10.17-3.39h-.45.11ZM108.21,344.7c-3.39,1.24-5.76,6.44-5.2,11.75,1.36-3.95,3.16-7.34,6.21-10.39-.45-.56-.79-1.02-1.02-1.36h0Z"/>
      <path class="cls-1" d="M276.95,299.98c-1.36,0-2.37,0-3.39.23-1.58,0-3.16.23-4.63,0-1.36,0-1.81-.79-1.36-2.03.23-.79.56-1.36,1.24-2.03,2.82-3.16,6.44-4.74,10.39-5.76.79-.23,1.58-.45,2.6-.56-.79-1.36-1.36-2.82-2.03-4.18-.68-1.36-1.02-2.82-.79-4.18.23-1.58.79-3.05,3.05-3.16,1.02.56,2.15,1.24,3.84,2.03v-1.58c0-6.55.45-13.21,2.37-19.54.56-1.81,1.24-3.39,2.37-4.74,1.24-1.24,2.03-1.24,2.82.45,1.36,2.6,2.6,4.97,3.95,7.57,0,.45.45.56.79,1.02,1.02-4.18,1.81-8.36,2.6-12.42,1.36-5.76,3.16-11.63,5.76-16.94.79-1.58,1.81-3.39,2.6-4.74,2.03-.45,2.6,0,2.82,1.36.23,2.03.79,3.84,1.36,5.76,1.02-4.4,2.03-8.81,3.16-12.99,1.24-4.63,2.82-9.15,5.2-13.33,1.36-2.37,3.16-4.63,4.74-6.78.45-.56,1.02-1.02,1.81-1.36,1.02-.56,2.03,0,2.03,1.24v2.37c0,2.37-.23,4.74-.45,7v1.24c.79-2.82,1.36-4.97,2.03-7.23,1.81-6.44,4.4-12.42,8.36-17.73,1.58-2.15,3.61-4.4,6.44-5.65.45.23.79.45,1.36.79-.79,3.16-1.02,6.44-.79,10.17.45-.79.56-1.02,1.02-1.36,3.95-7.23,8.58-14.01,14.57-19.54,2.15-2.03,4.74-3.61,7.34-5.42,1.24-.79,2.37-1.36,3.61,0,.45,1.02-.23,1.81-.79,2.37-1.58,2.15-2.82,4.63-3.84,7.23,0,.45-.23.79-.45,1.81.79-.79,1.02-1.02,1.36-1.36,3.05-3.05,5.76-5.99,9.04-8.81,3.16-2.82,6.55-4.74,10.62-6.44,1.02-.45,2.03-.56,3.16-.79s1.81.79,1.24,1.81c-.23.56-.79,1.02-1.24,1.58-1.81,1.81-3.16,3.95-3.95,6.44,1.24-1.02,2.37-1.81,3.61-2.82,5.99-4.4,12.42-7.34,19.31-9.37,1.81-.45,3.61-.79,5.42-1.02,1.02,0,2.15,0,3.16.56.53,1.36.19,2.41-1.02,3.16-3.05,2.03-5.42,4.4-7.79,7.79,1.02-.45,1.58-.56,2.15-.79,6.78-2.82,13.78-3.95,21.12-3.95,1.58,0,3.16.45,4.4,1.81.23,1.02-.45,1.58-1.24,1.81s-1.58.56-2.37,1.02c-2.03.79-3.84,1.81-5.65,3.61h1.36c4.97-1.58,10.17-2.15,15.36-1.81,3.95.45,8.02,1.02,11.75,2.6.79.45,1.58.79,2.15,1.24s1.02,1.24.45,2.15c-3.61,1.58-7.57,2.6-11.63,4.74h1.36c3.39-.23,6.78.45,10.17,1.24,5.42,1.24,10.62,2.37,15.59,4.74l4.18,2.37c.68.53,1.2,1.24,1.58,2.15-.23.79-.79.79-1.58,1.02-4.97.45-9.6,1.81-14.23,3.84,0,0-.45.23-.56.45,4.18.79,7.79,2.6,11.41,4.4,3.05,1.36,5.76,3.16,8.13,5.65.79.56,1.24,1.58,1.81,2.15-.79,1.36-1.81,2.03-3.05,2.82-2.6,1.58-4.97,3.16-7.57,4.74-.56.45-1.02,1.02-1.58,1.36,2.15.79,4.4,1.36,6.44,2.03,1.58.56,3.05,1.58,3.95,3.05,1.02,1.24,1.02,2.03-.45,2.82-3.39,2.6-6.44,5.65-8.81,9.37,1.58.23,2.82.45,4.18.56,2.37.23,4.63.79,6.55,2.03.79.45,1.58,1.02,2.03,2.15-1.58,3.16-4.4,5.42-7,8.02.45.45.79.79,1.24,1.02,3.39,2.6,4.63,6.21,3.95,10.39,0,1.02-.56,2.03-1.24,2.82-.56,1.02-1.36,2.03-2.03,3.05-1.24,1.81-2.15,3.61-2.6,5.65,0,.23,0,.45-.23.79-1.02,3.95-3.39,5.42-7.23,5.76-1.36,0-2.37-.23-3.16-1.02-1.36.45-2.37.79-3.61,1.02-1.36.23-2.15-.56-2.82-1.58h-.45c-1.02,0-2.15.45-3.05-.56-.79-1.24-1.36-2.37-1.24-3.95.56-2.15,1.36-4.4,2.82-6.21.56-.79,1.02-1.81,1.58-2.6-1.02-2.15-1.36-2.15-3.16-1.58-2.03.56-3.95,1.24-5.99,1.81-.45,0-.56.23-1.24.56,1.36.79,2.6,1.24,3.84,1.81.45.23.79.45,1.24.56.79.56.79,1.36.45,2.15-2.03,3.16-4.63,5.76-8.02,7.23-2.6,1.02-4.4,2.82-5.42,5.42,0,.23-.23.45-.45,1.02,1.24.79,2.37,1.36,3.61,2.03,3.61,1.81,6.44,4.63,8.13,8.13,1.58,3.39,1.81,6.78-.56,10.17-.79,1.24-1.36,2.6-1.81,3.84-1.24,3.16-3.05,5.99-5.42,8.13-1.02,1.02-2.15,1.81-3.39,2.6-2.15,1.36-3.84,1.24-5.65-1.02-4.74,2.03-6.44,1.58-7.79-2.15-2.15-1.02-2.6-2.03-2.03-4.4.45-1.58,1.02-3.16,2.15-4.63.79-1.02,1.36-1.81,2.03-2.82.68-1.02,1.24-2.15.45-3.61-.45.56-1.02,1.02-1.36,1.36-4.63,6.21-9.6,12.2-15.02,17.62-3.16,3.39-6.78,6.21-10.39,9.04-2.82,2.03-5.42,4.18-8.36,6.21,2.82,4.74,3.84,9.94,4.97,15.13,1.24,4.74,1.36,9.83-.45,14.57-1.36,4.4-3.84,8.13-7.79,10.73-1.81,1.24-3.61,1.36-5.42,0-2.6,1.58-3.61,1.36-5.76-1.02-.79-.23-1.58-.45-2.37-.56-1.36,1.02-2.37,2.15-3.16,3.84-.79,1.58-2.03,2.6-3.61,2.6-1.02,0-2.15-.45-3.61-.56-2.82,1.36-5.42.56-6.78-2.37,0,0-.23,0-.45-.23-2.15-.23-3.16-1.02-3.39-3.16,0-1.81.45-3.61,1.36-5.2.45-.45.56-.79,1.02-1.24,2.03-1.58,2.03-3.61,1.02-5.76-1.02-2.15-2.15-4.4-3.95-6.21-6.21-.45-12.42-.79-18.52.45-2.6.45-4.97,1.36-7.23,2.15-5.2,2.15-10.62,4.63-15.59,7-2.6,1.24-4.97,2.6-7.34,3.95-3.16,2.03-6.44,3.39-9.94,3.95-3.84.79-7.79.79-11.75,0-4.97-1.02-9.94-1.58-15.02-1.58-2.82,0-5.42.23-8.13.45-.45.23-.79.56-1.36,1.02-2.15,1.36-4.74,2.03-7.34,1.36-2.03-.45-3.95-1.36-5.65-2.6-2.82-2.15-3.84-5.42-3.16-8.81,0-.79.79-1.58,1.36-2.15,1.02-1.02,2.37-1.58,3.95-2.03,3.84-.79,7.57-.79,10.96,1.36,0,0,.45,0,.79.45,1.02-.79,2.15-1.58,3.39-2.6,4.74-4.18,8.36-9.37,9.94-15.59.45-1.58.56-3.39.79-5.2,0-3.39-.23-6.78-.23-10.17,0-1.58,0-3.16.23-4.97-.79.45-1.02,1.24-1.24,1.81-.45,1.24-1.24,2.03-2.82,2.15-1.24,0-1.58-1.02-2.03-2.03-.79-2.15-.56-4.4,0-6.55.56-2.03,1.58-3.84,2.15-5.65,0-.45.45-.79.79-1.36-1.81,0-2.6,2.03-4.4,1.36-1.02-.56-1.02-1.81-.79-2.82.45-1.58.79-3.16,1.81-4.63.23-.45.45-.79.56-1.36h0l.23-1.02,1.24-.45ZM282.15,281.79c0,2.15,1.02,3.61,1.81,5.2.56,1.24,1.36,2.37,2.03,3.61.79,1.36,0,2.37-1.36,2.6-1.24,0-2.6.23-3.84.45-3.05.45-5.65,1.58-8.36,3.61h8.36s1.58.45,1.81,1.24c.45.79-.23,1.36-.79,1.81s-1.02.79-1.58,1.24c-.56.56-1.36,1.36-1.58,2.6,1.02-.23,1.58-.56,2.37-.56h3.16c2.03.56,2.15,2.03,1.02,3.39l-.45.45c-2.37,2.03-3.61,4.63-4.63,7.34v1.36c1.24-1.36,2.03-2.37,3.05-3.39,2.6-2.82,5.42-4.74,9.04-5.76,2.15-.56,2.6-.45,3.16,1.58.45,1.24.79,2.6,1.81,3.61,2.03-2.37,3.84-4.74,4.63-7.79.79-3.05.79-5.76-1.24-8.36-.45-.45-.56-1.02-1.02-1.58-1.36-2.15-1.58-4.63-.45-7,.56-1.36,1.58-2.82,2.6-3.84,3.61-3.61,8.02-5.2,12.99-3.95,7.34,1.58,12.76,8.13,11.97,16.38,0,1.58-.23,3.05-.45,4.97,1.36-1.24,2.6-2.03,3.61-3.05.79-.56,1.36-1.36,2.15-2.03s1.36-.56,2.15,0c.79.45,1.02,1.24.79,2.03-.23,1.24-.45,2.15-.79,3.39,3.95-1.36,7.79-2.6,11.63-3.84h.79c1.24,0,1.81.79,1.36,1.81-.45.79-1.02,1.36-1.36,2.03-.56.79-1.36,1.58-1.36,3.05,3.05-.45,5.76-.56,8.58-1.36,3.05-.79,5.2-2.6,7.79-4.18.56.45,1.02.79,1.36,1.02,0,2.15.56,4.18,2.6,5.42.45,0,.56-.23.79-.45s.56-.45.79-.56c2.03-2.03,4.63-3.05,7.34-3.39,1.24-.23,2.15,0,2.82,1.02,2.15,2.6,5.2,3.84,8.13,4.97.56.23,1.36.45,2.15.45.23-1.02.45-1.58.56-2.37,1.02-3.05,2.6-5.65,4.97-7.79,1.02-1.02,2.15-1.58,3.61-1.24,5.65,1.36,11.41,1.02,17.17.23,1.36-.23,2.82-.23,4.18-1.36-2.82-1.36-4.18-2.37-5.65-3.95-.56-.79-.56-1.58-.45-2.15.23-.79,1.02-1.02,1.81-1.24h1.36c3.84.23,7.57,0,11.18-.79,2.6-.56,4.97-1.24,7.57-2.15-2.15-1.36-4.18-2.6-5.42-4.63.56-2.6,1.02-2.82,3.39-2.82h3.95c5.99-.45,11.63-2.15,16.83-5.42,1.24-.79,2.15-1.58,3.61-2.6-.79-.45-1.24-.79-1.81-1.02-1.36-.79-2.82-1.58-4.18-2.6-1.36-.79-2.03-2.03-1.36-3.61,1.02-.79,2.03-1.02,3.16-1.24s2.6-.45,3.84-.79c6.44-1.58,12.42-4.63,17.73-8.36,2.6-1.81,4.97-3.84,7.34-5.76.79-.56,1.36-1.36,2.15-2.15s1.58-1.36,2.15-2.37c-4.18-2.03-8.36-1.81-12.42-1.81-1.24-1.36-1.36-2.03-.23-3.84,2.37-3.61,4.97-7,8.36-9.6.45-.23.79-.45,1.36-.79-4.18-2.6-8.13-3.39-12.42-3.05-.56-1.24-.56-2.15,0-3.05,3.16-3.84,7.23-6.55,11.41-8.81l1.58-.79c-7.34-5.42-15.13-9.37-24.4-9.6-.45-1.36.45-2.03,1.24-2.37,4.63-2.6,9.37-4.4,14.34-5.65.56,0,1.24-.45,2.15-.56-1.02-.45-1.58-.79-2.37-1.24-4.63-2.15-9.6-3.16-14.34-4.4-2.82-.56-5.42-1.36-8.36-1.02-1.36,0-3.05,0-4.4.23-1.36,0-2.6,0-3.84.56h-1.36c-.45-.79-.45-1.36,0-2.03.45-.56,1.02-1.24,1.58-1.81,2.03-1.58,3.95-3.05,6.44-3.84,1.81-.56,3.84-1.36,5.76-2.15-4.74-1.58-9.37-2.03-14.01-2.03-5.42,0-10.62,1.36-15.81,3.16-.79.23-1.36.56-2.15,0-.56-1.02,0-2.03.45-3.05,1.36-2.03,3.05-3.61,4.97-4.97.45-.23.56-.56,1.02-1.02h-2.37c-5.42.56-10.62,1.81-15.59,3.95-1.24.45-2.15,1.02-3.39,1.36-.79.45-1.58.45-2.82,0,0-.79.23-1.58.56-2.15,1.24-3.05,2.82-5.65,5.2-7.79.45-.45.56-.79,1.36-1.36-1.02,0-1.36.23-2.03.45-2.82,1.02-5.65,2.03-8.13,3.16-6.55,3.05-12.42,7.23-17.73,11.97-1.24,1.02-1.81,1.02-3.39,0,.45-3.84,3.16-7,4.74-10.39h-.23l-1.24.56c-7.23,4.4-12.76,10.17-17.39,16.94-.79,1.02-1.58,2.03-2.15,2.82-1.24.23-1.58-.45-1.81-1.02v-2.03c.45-3.39,1.02-6.55,2.37-9.83.23-.45.45-.79.79-1.58-3.16,2.15-5.65,4.74-7.79,7.34-4.97,5.99-9.6,12.42-11.97,19.99-.23.56-.56,1.24-.79,1.58-1.81,0-2.6-.56-2.82-2.37-.23-2.6-.79-5.2-.23-7.79v-2.82c-2.6,2.6-4.18,5.42-5.42,8.13-1.36,3.05-2.6,5.99-3.84,9.04-1.02,3.05-1.81,5.99-2.37,9.15-.56,3.16-.79,6.44-1.24,9.6-1.58.45-1.81.45-2.37-.56-.45-.56-.56-1.24-.79-1.81-.79-4.4-2.6-8.81-1.58-13.33l-.23-.45c-.45.56-1.02,1.24-1.36,1.81-1.02,1.81-2.03,3.61-2.82,5.65-2.37,5.76-3.95,11.75-5.2,17.73-.56,2.82-.79,5.76-1.24,8.81,0,.79,0,1.58-.79,2.15-.79.23-1.58,0-2.03-.79s-1.02-1.58-1.24-2.37c-.79-2.03-1.58-3.95-2.15-5.99l-.45.45s-.45.79-.56,1.24c-3.95,9.04-6.21,18.52-7.79,28.35-.45,2.37-1.58,3.16-3.84,1.81-1.36-1.02-2.15-2.15-3.05-3.61-.79-1.36-1.58-2.82-2.37-4.4-.23.79-.45,1.24-.56,1.58-1.02,3.84-1.58,7.57-1.58,11.41v8.36c0,1.58,0,3.05-.79,4.63-3.05,0-4.18-2.6-6.55-3.61l.56.56-.23-.45,1.13.11ZM290.62,366.84v.45l4.74.56c5.76.56,11.41-.45,16.38-3.61,1.24-.79,2.37-1.58,3.61-2.15,7.23-4.18,14.8-7.23,22.36-10.62,3.39-1.36,7-2.37,10.62-2.6h12.99c4.63,0,9.04-.56,13.33-1.81,2.6-.56,4.4-2.15,5.99-4.4,1.02-1.36,1.58-1.58,2.82-.45,1.81,1.58,3.16,3.61,4.18,5.99,1.81,4.74,1.58,9.83,0,14.57-.45,1.24-1.02,2.37-.56,3.95.23-.56.45-.79.56-1.24.79-2.03,2.15-3.61,3.61-5.2.79-.79,1.36-1.24,2.37-.56.45,1.02,0,1.58-.56,2.15-.79,1.02-1.58,2.15-2.37,3.16s-1.02,2.15-1.02,3.39c0,.56,0,1.24.79,1.36.79-.79,1.36-1.36,2.15-2.03.56-2.37.56-5.2,3.16-6.55.83.68,1.09,1.47.79,2.37-.45,1.58-.79,3.16-1.24,4.74,0,.45,0,1.02.56,1.36,1.24-.79,2.37-1.58,3.39-2.82,3.84-4.63,5.2-9.94,4.63-15.81-.45-3.84-1.58-7.57-2.6-11.18-1.02-3.39-2.37-6.55-4.74-9.15-.45-.45-.79-.79-1.02-1.36-.56-1.02-.56-2.03,0-2.37.56-.56,1.58-.45,2.6.23l1.02,1.02s.79.56,1.02.79c.45-.23.79-.45,1.02-.79,2.6-1.81,4.97-3.84,7.34-5.65,3.84-2.82,7.23-5.76,10.62-9.15,4.97-5.2,9.37-11.18,13.78-16.94,3.95-5.42,7.57-11.18,10.73-16.94.45-.56.56-1.02,1.02-1.81-3.61.56-7,1.02-10.39,1.58,1.24,1.24,3.05,1.58,3.61,3.16-.23,2.15-1.81,3.05-3.39,3.84-4.4,1.58-9.04,2.6-13.55,3.05-.79,0-1.58,0-3.05.23,2.6,1.36,4.97,1.58,7,3.05,0,1.36-.45,2.15-1.58,2.6l-1.24.45c-5.99,2.37-12.2,3.16-18.52,3.05-2.6,0-5.2-.23-7.57-1.36-2.03,1.58-3.61,3.95-4.63,7-.45,1.24-1.02,2.6-1.36,3.61-1.58.79-3.05.79-4.4.56-4.18-1.02-8.13-2.82-10.96-6.21-2.15.45-3.84,1.36-5.42,2.82-.56.56-1.36,1.24-2.03,1.58-.45.23-1.24.45-1.58.23-1.58-.79-3.16-1.36-3.95-3.16-.23-.56-.56-1.02-1.02-1.58-4.63,3.39-10.17,3.61-15.59,4.4-2.03.23-3.05-.56-2.82-2.6,0-1.02.23-1.81.45-2.82-3.39.79-6.78,1.81-9.6,3.95-1.36,1.02-1.58,1.02-3.05-.23-.45-1.81,1.36-3.16,1.36-4.97-.45.45-.79.56-1.24,1.02-2.37,1.81-4.97,3.39-7.79,4.18s-5.76,1.02-8.36-.79c-1.02.45-1.81.79-3.05,1.36-.45-.79-.79-1.36-1.24-2.03-.79,0-1.36,1.24-2.6.23-.45-1.81,1.58-2.15,2.15-3.61-.56-1.24-1.36-2.15-1.81-3.39-1.02-2.15-1.81-4.63-1.02-7,1.02-3.05,3.05-3.95,5.65-3.16s4.63,2.03,6.21,4.18c2.6,3.39,2.82,7.23,1.81,11.18v.79c.56,0,1.24-.23,1.81-.45.45-2.37.79-4.63,1.24-6.78.45-4.18-.79-7.79-4.18-10.62-4.97-4.4-10.73-3.05-14.57.56-1.36,1.36-2.15,3.05-1.81,4.74.23,1.02.79,1.81,1.24,2.82,1.24,2.03,2.03,3.95,2.15,6.21.23,5.99-2.82,10.62-6.78,14.8h0c-1.02.79-1.36.79-2.37,0-1.36-.79-2.03-2.15-2.82-3.39-.45-.79-.56-1.36-1.02-2.15-2.37,1.02-4.4,2.15-5.42,4.74-1.36,3.39-1.81,7-1.58,10.62,0,3.16.45,6.44.23,9.6,0,2.15-.45,4.4-1.02,6.44-2.15,7.34-6.44,13.33-12.54,17.96-.45.45-.79.79-1.36,1.24,2.37,2.03,1.24,4.18.79,6.44h9.6s.56,0,1.02-.23c4.4-.79,8.81-2.15,12.99-3.95,4.74-1.81,9.15-4.4,12.99-7.57,1.81-1.58,3.39-3.61,3.95-5.99,0-.79.45-1.36.79-2.03.45-.79.79-1.36,2.03-1.58.23.45.56.79.56,1.24v2.15c-.79,3.05-2.03,5.65-4.4,7.57-3.16,2.82-6.55,5.42-10.62,7-3.16,1.36-6.55,2.82-9.94,3.95l.45-.45-1.02,1.02h.11ZM444.79,284.5c-2.15,3.61-4.63,7.34-7,11.18,2.03,2.03,2.15,4.18,1.02,6.44,1.81,1.02,2.03,1.36,1.02,3.16,0,.45-.45.79-.56,1.02-.79,1.58-1.36,3.05-2.15,4.63-.45,1.02-.56,2.03,0,2.82,1.36,0,1.81,0,2.15-.45.79-1.24,1.58-2.37,2.37-3.84.79-1.58,1.36-3.16,2.15-4.74.23-.45.56-.79,1.02-1.02s1.24-.23,1.36,0c.45.23.56,1.02.56,1.36,0,.56-.45,1.24-.79,1.81-1.02,1.58-1.58,3.16-1.81,5.2,0,.79-.23,1.58.56,2.15,1.81-.56,3.16-1.81,4.4-3.16,1.81-2.03,3.05-4.18,3.95-6.78.56-1.58,1.36-3.05,2.15-4.63.79-1.24,1.02-2.15,1.02-3.61,0-1.58-.56-3.05-1.36-4.4-1.58-2.37-3.61-4.18-6.21-5.42-1.36-.56-2.6-1.36-3.95-2.15h0v.45h.11ZM376.69,374.41s1.02-.56,1.36-1.02c1.58-2.03,3.16-3.95,4.63-5.99.23-.45.56-.56.56-1.02.45-1.81,1.02-3.61,1.36-5.42-1.58-4.18-2.6-8.81-6.55-11.18-3.95,1.02-7.79,1.81-11.75,2.82,1.58,2.15,2.82,4.63,3.61,7,.56,2.03.45,3.84-.79,5.42-.45.79-1.02,1.36-1.58,2.15-.79,1.02-1.02,2.15-1.02,3.39,0,.23.23.45.56,1.02.23-.56.45-1.02.45-1.24.45-1.36,1.02-2.6,1.58-3.95.23-.56.79-1.24,1.58-1.02.79,0,1.02.79,1.24,1.36-.79,2.37-2.15,4.63-1.36,7.23,1.02.56,1.81.56,2.6-.23v-1.36c0-1.81.56-3.39,1.36-4.74.56-1.02.79-1.02,2.6-.56,0,.56,0,1.24-.23,1.81-.23.79-.79,1.58-.79,2.6,0,1.24-.56,2.37.79,3.61h0l-.23-.56v-.11ZM479.69,250.84c-4.18,3.39-8.36,6.21-13.21,8.58,1.02,1.24,1.58,2.37,1.36,3.84,0,1.24-.45,2.37-.79,3.61.23,0,.45-.23.45-.45.56-.56,1.24-1.24,2.15-.56.56.45.56,1.02,0,2.15-.45,1.02-1.02,2.03-1.36,3.16s-1.02,2.37-.45,3.84c.45,0,.79,0,1.02-.45.45-.79.79-1.58,1.24-2.6.45-.56.45-1.36.79-2.03.45-.79,1.02-1.02,2.03-.79.79.23,1.02.79,1.02,1.58,0,.56-.45,1.36-.45,2.03s-.79,1.24,0,2.03c3.05.56,4.74-.56,5.42-3.61.56-2.82,1.58-5.2,3.39-7.57.56-.79,1.02-1.58,1.58-2.37,1.58-2.6,1.24-6.21-1.02-8.13-.79-.79-2.03-1.36-3.05-2.15h-.23l.11-.11ZM311.18,299.07s1.81-1.02,2.82.23v2.03h2.6c1.02-5.76-2.15-10.73-7-10.73-1.58,3.16.45,5.76,1.58,8.58v-.11ZM380.41,348.09c2.15,2.15,3.95,4.4,4.97,7.23.45-3.61-.56-6.55-3.05-9.6-.79.79-1.24,1.36-2.03,2.15h0v.23h.11Z"/>
      <path class="cls-1" d="M158.02,98.59c-2.15.45-3.95.56-5.76,1.02-1.02,0-2.03.23-3.05.23-1.81,0-3.61,0-4.74-1.58-.79.56-.79,1.36-.79,2.15-1.24,4.97-2.37,9.83-4.4,14.57-1.36,3.39-3.16,6.55-5.42,9.37-6.21,7.57-14.01,10.39-23.38,8.36-9.94-2.15-17.39-7.57-22.82-16.38-1.24-1.81-2.15-3.84-2.82-5.76-.45-1.36-.45-2.82-.56-4.18,0-.45,0-1.02.45-1.58.56-1.24,1.81-1.36,2.6-.23.45.56.79,1.24,1.24,2.03,2.37,4.4,4.97,8.81,8.58,12.2,4.97,4.74,10.73,7.57,17.73,8.13,6.21.56,11.18-2.03,15.13-6.55,3.05-3.61,4.74-7.57,6.44-11.97,2.15-6.44,3.39-12.76,4.4-19.31,1.24-7.79,2.15-15.59,3.61-23.38,1.58-9.04,3.61-17.96,6.44-26.54.79-2.82,2.03-5.2,3.16-7.79.45-.79.79-1.36,1.36-2.03.45-.56,1.24-.79,2.03-.45s1.24,1.02,1.02,1.81c0,.45,0,1.02-.45,1.36-1.81,2.82-2.6,5.76-3.39,8.81-3.16,13.55-5.99,27.33-7.79,41.11-.45,2.6-.56,5.2-1.02,7.79v1.58c1.58-.79,3.16-1.36,4.63-2.03,1.81-.56,3.61-.23,5.2.56,1.36.79,2.82,1.81,4.63,2.82,1.02-.45,2.15-.79,3.16-1.36,12.76-6.78,22.14-16.6,26.77-30.61,2.03-6.21,2.82-12.42,2.6-18.97,0-5.76-1.02-11.41-3.39-16.6-4.18-9.83-11.41-15.81-21.57-18.52-4.74-1.36-9.6-1.58-14.57-1.24-18.97,2.03-35.35,9.6-49.47,22.59-5.65,5.2-9.6,11.41-11.97,18.52-1.24,3.84-1.81,7.57-1.24,11.63.45,2.37.56,4.74.79,7.23v3.05s-.23,1.02-.56,1.36c-.79,1.02-2.15,1.02-2.82-.45-.23-.56-.23-1.24-.45-1.81-.45-3.39-.79-6.55-1.02-9.94-.56-4.97,0-9.6,1.81-14.34,3.39-9.6,9.37-17.39,17.39-23.61,12.76-9.94,26.99-16.6,43.15-18.97,7-1.02,14.01-1.02,21.01,1.02,11.63,3.39,19.31,10.73,23.72,21.91,1.81,4.4,2.6,8.81,3.16,13.33,1.02,8.13,0,16.38-2.15,24.17-3.05,9.94-8.58,18.41-16.15,25.41-3.95,3.84-8.36,7-13.55,9.37-.56.23-1.02.56-1.58,1.02.56,1.36,1.36,2.6,2.03,3.95,2.6,5.42,4.18,11.18,5.99,16.83,2.03,6.55,3.95,12.99,7,19.2,2.15,4.74,4.97,9.37,9.04,13.21,3.39,3.39,7.23,5.65,12.2,5.99,3.61.23,7.23-.56,10.39-2.15,4.97-2.15,9.04-5.65,12.99-9.37,5.65-5.42,10.39-11.63,15.02-17.96,1.36-2.03,2.6-3.95,3.05-6.44.45-1.36,1.02-2.03,1.81-1.81.79,0,1.24,1.02,1.36,2.15,0,2.6-.45,4.97-1.58,7.23-1.81,3.84-3.95,7.23-6.55,10.39-4.74,6.21-10.17,11.97-16.83,16.6-3.61,2.6-7.23,4.63-11.63,5.76-8.36,2.15-15.59.23-21.91-5.65-3.95-3.84-7.23-8.13-9.6-13.21-3.05-5.76-5.2-11.97-7.23-18.18-1.36-4.63-2.82-9.04-4.4-13.55-1.24-3.16-2.6-6.21-3.95-9.37-.45-.79-1.02-1.36-1.36-2.37h.23l-1.02.45h-.34Z"/>
      <path class="cls-1" d="M344.04,67.64c3.16,0,6.44.23,9.83.45,4.4,0,8.58,0,12.99.45,4.63.23,9.37.56,13.78,2.15,1.81.56,3.39,1.36,4.97,2.15,4.18,2.82,5.42,7.34,2.82,11.75-1.02,1.81-2.15,3.61-3.84,4.97-2.03,2.15-4.4,3.95-6.55,5.99-8.13,6.55-16.83,12.42-25.53,17.73-12.2,7.34-24.96,13.78-38.18,19.31-8.13,3.39-16.38,6.21-24.96,8.02-.79,0-1.36.23-2.15,0-1.24,0-2.15-.79-2.37-2.03s0-2.15,1.02-2.82c.79-.45,1.58-.79,2.6-1.24,4.4-1.58,8.81-3.16,13.21-4.74,11.41-4.4,22.36-9.83,33.32-15.36,9.37-4.74,18.75-9.94,27.78-15.81,5.99-3.84,11.97-7.57,17.17-12.54,1.36-1.24,2.37-2.6,3.39-3.95,2.03-2.82,1.58-4.74-1.58-6.44-1.58-.79-3.39-1.58-5.42-1.81-3.16-.56-6.44-1.02-9.6-1.24-9.37-.45-18.52-.45-28.01-.79-1.36,0-3.05-.23-4.4-.56-1.58-.23-2.6-1.24-3.05-2.82-.45-1.36.23-2.82,1.36-3.61s2.6-1.58,4.18-2.15c3.84-1.36,7.79-2.82,11.75-3.95,6.55-2.15,13.33-4.63,19.77-7.79,3.95-2.03,7.79-3.95,11.18-6.78,2.03-1.58,3.84-3.39,5.42-5.2,3.39-4.18,3.16-7.79,0-11.75-2.6-3.16-5.99-5.42-9.83-7.23-5.99-2.82-12.2-4.4-18.75-5.2-4.18-.56-8.36-1.02-12.54-.79-6.55.45-12.76,1.58-19.2,3.61-7.57,2.15-15.02,5.2-22.14,8.36-1.24.56-2.15,1.24-3.39,1.81-1.24.79-2.15,1.36-3.05,2.6-.56,1.02-1.58,1.24-2.37.79-1.02-.23-1.58-1.02-1.58-2.15s.45-2.15,1.24-3.05c1.02-1.02,2.15-2.03,3.39-2.82,3.16-1.58,6.44-3.39,9.6-4.74,7-3.16,14.34-5.76,21.8-7.57,6.55-1.58,13.21-2.82,19.77-2.6,10.62.45,21.12,2.15,30.72,7.23,3.95,2.03,7.34,4.63,10.17,7.79,2.6,3.05,3.95,6.44,3.84,10.39-.23,3.05-1.36,5.42-3.16,7.79-2.82,3.95-6.55,7-10.73,9.6-6.44,3.95-13.33,7-20.56,9.6-3.95,1.58-8.13,2.82-12.2,4.18-.79.23-1.36.45-2.03.79h0v.45l.23,1.58h-.11Z"/>
      <path class="cls-1" d="M245.89,234.81c-14.23,10.62-30.16,5.76-38.29-3.16-9.15-9.94-10.39-25.19-2.37-36.37,4.63-6.44,10.73-10.39,18.75-11.75,7.79-1.36,15.02.45,21.8,4.74,7.79-5.42,16.15-7.34,25.41-4.74,6.44,1.81,11.41,5.42,15.36,10.62,8.13,11.41,7.34,26.32-1.81,36.59-9.04,9.94-25.41,13.21-38.51,3.95h0l-.23.23-.11-.11ZM241.04,192.34c-7.34-5.42-21.12-5.99-30.16,3.84-8.36,9.15-8.13,23.72,1.24,32.98,9.6,9.15,23.72,7.79,30.61,2.15-5.2-5.2-8.13-11.63-8.36-18.97s2.15-14.01,6.78-19.99h-.11ZM249.85,191.66c10.39,12.76,10.73,25.98,1.24,39.31,6.55,4.97,20.33,5.76,29.37-3.95,8.58-9.37,8.13-23.72-.79-32.75-9.37-9.15-23.61-7.79-29.7-2.6h-.11ZM246.01,227.8c4.63-5.42,6.55-11.41,5.99-18.18-.56-5.99-3.84-12.2-6.78-13.78-8.81,9.04-7,24.51.79,31.96h0Z"/>
      <path class="cls-1" d="M333.77,25.18c0,4.63-.79,9.37-1.81,13.78-2.6,11.41-6.44,22.36-11.75,32.75-3.84,7.34-8.36,14.01-13.33,20.56-11.41,14.8-23.72,28.91-36.59,42.58-7.57,8.02-15.36,15.93-23.72,23.15-2.03,1.81-4.4,3.61-6.55,4.97-1.58,1.02-3.39,1.81-5.2,2.37-.79.45-1.81.45-2.6.45-2.03,0-2.82-2.03-1.81-3.84.45-.56.79-1.02,1.36-1.36,3.16-2.15,5.99-4.97,8.81-7.79,11.97-12.2,23.94-24.17,35.69-36.59,8.36-8.58,16.6-17.39,24.17-26.77,8.02-9.83,14.34-20.56,19.2-32.3,3.39-8.81,6.21-17.73,8.02-26.99.56-2.82.79-5.76,1.02-8.58v-1.58c.23-1.24,1.02-2.03,2.15-2.03s2.15.56,2.6,1.58c0,.56.23,1.24.45,1.81v3.39h0v.45h-.11Z"/>
      <path class="cls-1" d="M252.22,81.31c1.02,1.24,1.58,2.03,2.37,2.82,1.02,1.24,1.36,2.03.56,2.82-.56.79-2.15.79-3.39,0-.79-.56-1.36-1.36-2.15-2.15s-1.24-1.36-2.03-2.15c-.56,0-1.02,0-1.58.23-3.61.79-7,1.81-10.62,2.37-4.4.79-8.81.79-13.21-1.02-1.02-.45-1.81-.79-2.82-1.36-4.63-2.82-6.21-7.57-4.18-12.54,1.02-2.37,2.37-4.63,3.95-6.44,2.82-3.16,6.21-5.76,9.94-8.02,2.03-1.24,3.95-2.37,6.21-3.84,0-1.02,0-2.03.23-3.05.23-3.61,1.02-7,2.6-10.39,3.16-7.34,11.18-11.97,18.52-11.63,2.6,0,4.97.79,7.23,2.03.79.45,1.36.79,2.03,1.36,2.82,2.6,3.16,5.99.79,9.04-1.24,1.58-2.6,3.05-4.18,3.95-2.6,1.58-5.2,3.16-8.02,4.4-3.95,2.03-8.13,3.84-12.42,5.76-.56.45-1.36.79-2.15,1.24.79,8.36,3.95,15.59,9.04,22.36,2.15-.79,4.4-1.58,6.44-2.15,2.15-.79,4.63-1.36,7-2.03,1.02-.23,2.03-.23,3.05-.23.79,0,1.36.23,1.58,1.02.45.79.45,1.58-.45,2.15s-1.58,1.36-2.6,1.58c-2.6,1.02-5.2,1.58-7.79,2.37-1.36.45-2.6.56-4.4,1.02h0s.45.45.45.45ZM245.1,78.71c-4.74-6.55-7.57-13.55-9.04-21.35-.45.23-.79.23-1.02.45-3.05,2.03-5.99,3.95-8.81,5.99-2.6,2.03-4.74,4.4-6.21,7.34-1.81,3.84-.79,6.78,3.05,8.58,2.15,1.02,4.4,1.58,6.78,1.58,2.82,0,5.65-.45,8.36-1.02,2.15-.45,4.4-1.02,6.78-1.58h.11ZM240.25,49.69s.79,0,1.02-.23c4.63-2.15,9.37-4.18,14.01-6.44,2.15-1.02,3.95-2.37,5.99-3.84,1.02-.56,1.58-1.58,2.37-2.6.79-1.24.56-2.03-.45-3.16-.45-.45-.79-.79-1.24-1.02-2.03-1.24-4.18-1.58-6.44-1.58-4.74.45-9.04,2.6-11.75,6.55-1.58,2.37-2.6,5.2-3.16,8.13-.23,1.24-.45,2.37-.56,3.84h0l.23.23v.11Z"/>
      <path class="cls-1" d="M197.33,330.7c-.23,2.6-1.58,5.2-4.18,7.23-1.58,1.02-3.39,1.24-5.2.45-2.15-.79-3.84-2.15-5.2-3.95-3.05-3.84-1.36-10.17,3.39-12.2,1.81-.79,3.84-1.24,5.42-.23,1.58.79,3.39,2.03,4.4,3.61,1.02,1.36,1.36,3.05,1.36,5.42h0v-.34ZM186.71,325.28s1.02,1.58,1.58,2.37c.56,1.02,1.58,1.36,2.6,1.58,1.36.23,2.03-.45,2.03-1.81,0-.79-.23-1.58-.45-2.6-2.03-.56-3.84-1.36-5.76.45h0Z"/>
      <path class="cls-1" d="M180.5,302.91c-2.03.23-3.84.23-5.2.56-2.37.56-3.84-.56-4.4-2.37-.56-1.58-.79-3.39-.45-5.2.56-2.37,1.81-4.63,3.61-6.21,1.02-.79,2.03-1.81,2.82-2.6,1.81-2.03,3.95-1.58,5.2.79.56,1.58.79,3.16.56,4.74,0,.79-.23,1.36-.56,2.15-.79,2.03-1.02,3.95-1.02,5.99,0,.79,0,1.81-.56,2.15h0v-.23.23ZM177.79,299.98c.56-2.15,1.02-4.18,1.58-6.21.45-1.36.45-2.82,0-4.4-1.24,1.02-2.15,2.03-3.16,2.82-2.03,1.81-2.82,3.95-2.6,6.55,0,.56.45,1.02.45,1.58,1.36-.23,2.6-.45,3.84-.56h0v.23h-.11Z"/>
      <path class="cls-1" d="M299.54,322.34c3.39,0,7.23,2.37,8.58,5.65.45,1.24.45,2.15,0,3.39-.23.79-.45,1.58-.56,2.37-.56,3.61-2.6,5.65-5.99,6.55s-5.99-.45-8.02-2.82c-3.05-3.61-2.82-8.36-1.02-11.63,1.24-2.15,3.16-3.16,5.65-3.61h1.36v.11ZM296.38,326.63c.79,2.37,1.81,3.16,3.39,3.05s2.37-1.36,2.6-3.16c-2.03-1.36-4.18-1.24-5.99.23h0v-.11Z"/>
    </g>
  </g>
</svg>