<?xml version="1.0" encoding="UTF-8"?>
<svg id="Layer_2" data-name="Layer 2" xmlns="http://www.w3.org/2000/svg" viewBox="0 0 35.54 35.55">
  <defs>
    <style>
      .cls-1 {
        fill: #262262;
      }
    </style>
  </defs>
  <g id="Layer_1-2" data-name="Layer 1">
    <path class="cls-1" d="M34.73,25.71l-6.04-6.04c-1.56-1.56-4.1-1.56-5.65,0l-3.17,3.17-7.17-7.17,3.17-3.17c1.56-1.56,1.56-4.09,0-5.65L9.83.81c-1.07-1.07-2.82-1.07-3.89,0l-2.47,2.47C-2.37,9.11-.66,20.33,7.28,28.27c4.76,4.76,10.69,7.28,15.93,7.28,3.51,0,6.72-1.13,9.06-3.47l2.46-2.46c1.08-1.08,1.08-2.83,0-3.91h0ZM29.45,29.25c-4.29,4.29-12.97,2.58-19.35-3.8C3.72,19.06,2.01,10.38,6.3,6.09l1.58-1.58,5.17,5.17-3.17,3.17c-1.56,1.56-1.56,4.09,0,5.65l7.17,7.17c1.56,1.56,4.09,1.56,5.65,0l3.17-3.17,5.17,5.17-1.58,1.59Z"/>
  </g>
</svg>