<?xml version="1.0" encoding="UTF-8"?>
<svg id="Layer_2" data-name="Layer 2" xmlns="http://www.w3.org/2000/svg" viewBox="0 0 143.21 150.1">
  <defs>
    <style>
      .cls-1 {
        fill: #262262;
      }
    </style>
  </defs>
  <g id="Layer_1-2" data-name="Layer 1">
    <g>
      <path class="cls-1" d="M102.13,150.08h-61.03c-2.25,0-4.08-1.83-4.08-4.08v-78.93c0-1.04.39-2.04,1.1-2.8l30.52-32.39c1.55-1.63,4.41-1.63,5.94,0l30.52,32.39c.72.76,1.1,1.75,1.1,2.8v78.93c0,2.25-1.83,4.08-4.08,4.08h.02ZM45.18,141.92h52.87v-73.24l-26.44-28.05-26.44,28.05v73.24Z"/>
      <path class="cls-1" d="M129.03,150.08h-26.91c-2.25,0-4.08-1.83-4.08-4.08v-59.05c0-1.35.67-2.63,1.79-3.39,1.12-.76,2.55-.92,3.82-.41l26.91,10.83c1.55.61,2.55,2.12,2.55,3.78v48.22c0,2.25-1.83,4.08-4.08,4.08h0ZM106.21,141.92h18.75v-41.38l-18.75-7.55v48.93Z"/>
      <path class="cls-1" d="M41.1,150.08H14.19c-2.25,0-4.08-1.83-4.08-4.08v-48.22c0-1.67,1.02-3.16,2.55-3.78l26.91-10.83c1.27-.51,2.69-.35,3.82.41,1.12.76,1.79,2.02,1.79,3.39v59.05c0,2.25-1.83,4.08-4.08,4.08h0ZM18.28,141.92h18.75v-48.93l-18.75,7.55v41.38Z"/>
      <path class="cls-1" d="M71.61,38.78c-2.25,0-4.08-1.83-4.08-4.08V4.08c0-2.25,1.83-4.08,4.08-4.08s4.08,1.83,4.08,4.08v30.62c0,2.25-1.83,4.08-4.08,4.08Z"/>
      <path class="cls-1" d="M81.73,17.96h-20.24c-2.25,0-4.08-1.83-4.08-4.08s1.83-4.08,4.08-4.08h20.24c2.25,0,4.08,1.83,4.08,4.08s-1.83,4.08-4.08,4.08Z"/>
      <path class="cls-1" d="M84.24,150.08h-25.25c-2.25,0-4.08-1.83-4.08-4.08v-26.62c0-9.22,7.49-16.71,16.71-16.71s16.71,7.49,16.71,16.71v26.62c0,2.25-1.83,4.08-4.08,4.08h0ZM63.06,141.92h17.09v-22.54c0-4.71-3.83-8.55-8.55-8.55s-8.55,3.83-8.55,8.55v22.54h0Z"/>
      <path class="cls-1" d="M139.14,150.08H4.08c-2.25,0-4.08-1.83-4.08-4.08s1.83-4.08,4.08-4.08h135.05c2.25,0,4.08,1.83,4.08,4.08s-1.83,4.08-4.08,4.08h.02Z"/>
    </g>
  </g>
</svg>