<?xml version="1.0" encoding="UTF-8"?>
<svg id="Layer_2" data-name="Layer 2" xmlns="http://www.w3.org/2000/svg" viewBox="0 0 96 99">
  <defs>
    <style>
      .cls-1 {
        fill: #262262;
      }
    </style>
  </defs>
  <g id="Layer_1-2" data-name="Layer 1">
    <g>
      <path class="cls-1" d="M82,0h-31.74C42.53,0,36.26,6.27,36.26,14v12.38c-1.81.31-3.29,1.62-3.82,3.38-.04.12-.06.24-.08.36l-.64,4.63c-.19,1.36-.58,2.67-1.17,3.91l-6.27,13.19c-.84,1.96-2.52,3.43-4.58,4-.13-2.56-2.27-4.56-4.83-4.52H4.87C2.24,51.27.06,53.36,0,56c0,0,0,.01,0,.02v38.29c.04,2.63,2.2,4.72,4.83,4.69h10c2.63.04,4.8-2.06,4.84-4.69v-.59l2.09,1.25c2.58,1.56,5.54,2.38,8.56,2.38h16.7c4.94.02,9.33-3.15,10.86-7.85l7.29-22.15c1.96-5.98-1.3-12.41-7.28-14.37-.7-.23-1.43-.39-2.16-.48-4.8-.59-9.18-.95-12.15-1-.1-1.68.06-3.37.49-5,1.92.95,4.04,1.45,6.18,1.45h13.17c2.49,6,7.35,9.47,11.15,11.41,2.16,1.09,4.8.22,5.9-1.94.54-1.06.62-2.3.22-3.43-.64-1.93-.81-3.99-.49-6h1.8c7.73,0,14-6.27,14-14V14.03C96.02,6.3,89.76.02,82.03,0c-.01,0-.02,0-.03,0ZM14.73,94H5v-37.66h9.73v37.66ZM55.12,57.5c3.5.43,5.99,3.62,5.56,7.12-.05.41-.14.82-.27,1.22l-7.28,22.12c-.86,2.62-3.31,4.39-6.07,4.39h-16.7c-2.11,0-4.19-.57-6-1.66l-4.66-2.8v-26.92h.2c3.96-.69,7.31-3.32,8.93-7l6.17-13.16c.8-1.7,1.34-3.51,1.6-5.37l.57-4.09c1.32.25,2.49,1.03,3.23,2.15,1.08,1.74,1.06,4.42,0,7.75-1.68,5.07-2.2,9.09-1.55,11.95.44,1.94,2.16,3.31,4.15,3.3h0c4.06.11,8.1.45,12.12,1ZM91,33.93c0,4.97-4.03,9-9,9h-3.82c-1.12,0-2.11.75-2.41,1.83-.88,3.06-.97,6.3-.24,9.41-3.76-2.05-6.61-5.43-8-9.48-.33-1.04-1.3-1.75-2.39-1.75h-14.88c-1.69,0-3.36-.48-4.79-1.38,1.18-4.27.91-7.87-.82-10.67-.85-1.36-2.02-2.49-3.42-3.28v-13.58c0-4.97,4.03-9,9-9h31.77c4.97,0,9,4.03,9,9v19.9Z"/>
      <path class="cls-1" d="M72.32,16.44l-9.72,9.71-3.6-3.55c-.98-.98-2.56-.98-3.54,0-.98.98-.98,2.56,0,3.54h0l5.37,5.36c.98.98,2.56.98,3.54,0,0,0,0,0,0,0l11.48-11.53c.98-.98.98-2.56,0-3.54-.98-.98-2.56-.98-3.54,0h.01Z"/>
    </g>
  </g>
</svg>